<?xml version="1.0" encoding="utf-8"?>
<!-- Generator: Adobe Illustrator 19.2.1, SVG Export Plug-In . SVG Version: 6.00 Build 0)  -->
<svg version="1.1" id="Layer_1" xmlns="http://www.w3.org/2000/svg" xmlns:xlink="http://www.w3.org/1999/xlink" x="0px" y="0px"
	 viewBox="0 0 16.1 13.1" style="enable-background:new 0 0 16.1 13.1;" xml:space="preserve">
<style type="text/css">
	.st0{fill:#B0AEAF;}
</style>
<path class="st0" d="M15,7.8H1c-0.6,0-1-0.4-1-1s0.4-1,1-1h11.6l-4-4.1c-0.4-0.4-0.4-1,0-1.4s1-0.4,1.4,0l5.6,5.8
	c0.3,0.3,0.4,0.7,0.2,1.1C15.8,7.6,15.5,7.8,15,7.8z"/>
<path class="st0" d="M9.7,13.1c-0.3,0-0.5-0.1-0.7-0.3c-0.4-0.4-0.4-1,0-1.4l5.4-5.3c0.4-0.4,1-0.4,1.4,0s0.4,1,0,1.4l-5.4,5.4
	C10.2,13.1,9.9,13.1,9.7,13.1z"/>
</svg>
