<?xml version="1.0" encoding="utf-8"?>
<!-- Generator: Adobe Illustrator 19.2.1, SVG Export Plug-In . SVG Version: 6.00 Build 0)  -->
<svg version="1.1" id="Layer_1" xmlns="http://www.w3.org/2000/svg" xmlns:xlink="http://www.w3.org/1999/xlink" x="0px" y="0px"
	 viewBox="0 0 16.1 13.1" style="enable-background:new 0 0 16.1 13.1;" xml:space="preserve">
<style type="text/css">
	.st0{fill:#B0AEAF;}
</style>
<path class="st0" d="M1.1,5.3h14c0.6,0,1,0.4,1,1s-0.4,1-1,1H3.5l4,4.1c0.4,0.4,0.4,1,0,1.4c-0.4,0.4-1,0.4-1.4,0L0.5,7
	C0.2,6.7,0.1,6.3,0.3,5.9C0.3,5.5,0.6,5.3,1.1,5.3z"/>
<path class="st0" d="M6.4,0c0.3,0,0.5,0.1,0.7,0.3c0.4,0.4,0.4,1,0,1.4L1.7,7c-0.4,0.4-1,0.4-1.4,0s-0.4-1,0-1.4l5.4-5.4
	C5.9,0,6.2,0,6.4,0z"/>
</svg>
