<?xml version="1.0" encoding="utf-8"?>
<svg version="1.1" id="Layer_1" xmlns="http://www.w3.org/2000/svg" xmlns:xlink="http://www.w3.org/1999/xlink" x="0px" y="0px"
	 viewBox="0 0 31.1 27.9" style="enable-background:new 0 0 31.1 27.9;" xml:space="preserve">
<style type="text/css">
	.st0{fill:#AFAEAF;}
</style>
  <path class="st0" d="M24.4,27.5c-0.6,0-1-0.4-1-1V1c0-0.6,0.4-1,1-1s1,0.4,1,1v25.5C25.4,27.1,24.9,27.5,24.4,27.5z"/>
  <path class="st0" d="M30.1,27.9H1c-0.6,0-1-0.4-1-1V1c0-0.6,0.4-1,1-1h29.1c0.6,0,1,0.4,1,1v25.9C31.1,27.4,30.7,27.9,30.1,27.9z
  	 M2,25.9h27.1V2H2V25.9z"/>
</svg>
