<?xml version="1.0" encoding="utf-8"?>
<!-- Generator: Adobe Illustrator 20.1.0, SVG Export Plug-In . SVG Version: 6.00 Build 0)  -->
<svg version="1.1" id="Layer_1" xmlns="http://www.w3.org/2000/svg" xmlns:xlink="http://www.w3.org/1999/xlink" x="0px" y="0px"
	 viewBox="0 0 16 16" style="enable-background:new 0 0 16 16;" xml:space="preserve">
<style type="text/css">
	.st0{fill:#676767;}
</style>
<g>
	<path class="st0" d="M14.6,4.2c0.7,0.8,1,1.8,1,2.8c0,1-0.3,1.9-1,2.8c-0.7,0.8-1.6,1.5-2.8,2c-1.2,0.5-2.5,0.7-3.8,0.7
		c-0.4,0-0.8,0-1.2-0.1c-1.1,1-2.4,1.7-3.9,2.1c-0.3,0.1-0.6,0.1-1,0.2c-0.1,0-0.2,0-0.3-0.1c-0.1-0.1-0.1-0.1-0.1-0.2v0
		c0,0,0-0.1,0-0.1c0,0,0-0.1,0-0.1c0,0,0,0,0-0.1c0,0,0-0.1,0.1-0.1c0,0,0,0,0.1-0.1c0,0,0.1-0.1,0.1-0.1c0,0,0.1-0.1,0.3-0.3
		c0.1-0.2,0.2-0.3,0.3-0.3c0.1-0.1,0.1-0.2,0.3-0.3s0.2-0.3,0.3-0.4C2.8,12.2,2.9,12,3,11.8c0.1-0.2,0.2-0.4,0.2-0.7
		c-0.9-0.5-1.6-1.1-2.1-1.9C0.6,8.6,0.3,7.8,0.3,6.9c0-0.7,0.2-1.4,0.6-2.1C1.3,4.1,1.9,3.5,2.6,3C3.3,2.5,4.1,2.1,5,1.9
		C6,1.6,7,1.4,8,1.4c1.4,0,2.7,0.2,3.8,0.7C13,2.6,14,3.3,14.6,4.2z"/>
</g>
</svg>
