<?xml version="1.0" encoding="utf-8"?>
<!-- Generator: Adobe Illustrator 20.1.0, SVG Export Plug-In . SVG Version: 6.00 Build 0)  -->
<svg version="1.1" id="Layer_1" xmlns="http://www.w3.org/2000/svg" xmlns:xlink="http://www.w3.org/1999/xlink" x="0px" y="0px"
	 viewBox="0 0 16 16" style="enable-background:new 0 0 16 16;" xml:space="preserve">
<style type="text/css">
	.st0{fill:#676767;}
</style>
<g>
	<path class="st0" d="M8.6,3.8l3.6,3.6l-7.1,7.1H1.5v-3.6L8.6,3.8z M4.6,13.4l0.8-0.8l-2-2l-0.8,0.8v0.9h1.1v1.1H4.6z M9.1,5.4
		c0-0.1-0.1-0.2-0.2-0.2c-0.1,0-0.1,0-0.1,0.1L4.1,10L4,10.1c0,0.1,0.1,0.2,0.2,0.2s0.1,0,0.1-0.1L9,5.6C9.1,5.6,9.1,5.5,9.1,5.4z
		 M14.5,4.6c0,0.3-0.1,0.6-0.3,0.8l-1.4,1.4L9.2,3.3l1.4-1.4c0.2-0.2,0.5-0.3,0.8-0.3s0.6,0.1,0.8,0.3l2,2
		C14.4,4.1,14.5,4.3,14.5,4.6z"/>
</g>
</svg>
