<?xml version="1.0" encoding="utf-8"?>
<!-- Generator: Adobe Illustrator 20.1.0, SVG Export Plug-In . SVG Version: 6.00 Build 0)  -->
<svg version="1.1" id="Layer_1" xmlns="http://www.w3.org/2000/svg" xmlns:xlink="http://www.w3.org/1999/xlink" x="0px" y="0px"
	 viewBox="0 0 16 16" style="enable-background:new 0 0 16 16;" xml:space="preserve">
<style type="text/css">
	.st0{fill:#46BC99;}
</style>
<g>
	<path class="st0" d="M14.5,7.4c0,0.5-0.1,1-0.4,1.4c0.1,0.2,0.1,0.4,0.1,0.6c0,0.4-0.1,0.9-0.3,1.2c0,0.1,0,0.2,0,0.4
		c0,0.6-0.2,1.1-0.5,1.5c0,0.8-0.2,1.4-0.7,1.9c-0.5,0.5-1.1,0.7-2,0.7h-0.3H9.6c-0.6,0-1.1-0.1-1.6-0.2c-0.5-0.1-1.2-0.3-1.9-0.6
		C5.4,14.1,5,14,4.9,14H2.4c-0.3,0-0.6-0.1-0.8-0.3s-0.3-0.5-0.3-0.8V7.4c0-0.3,0.1-0.6,0.3-0.8s0.5-0.3,0.8-0.3h2.4
		C5,6.1,5.4,5.7,5.9,4.9c0.3-0.4,0.6-0.8,0.9-1.1C7,3.7,7.1,3.4,7.2,3.1C7.2,2.8,7.3,2.4,7.4,2C7.5,1.6,7.7,1.3,8,1.1
		c0.2-0.2,0.5-0.3,0.8-0.3C9.2,0.8,9.7,0.9,10,1s0.7,0.5,0.9,0.9s0.3,0.9,0.3,1.6c0,0.5-0.1,1.1-0.4,1.7h1.5c0.6,0,1.1,0.2,1.6,0.7
		S14.5,6.8,14.5,7.4z M3.3,12.7c0.1-0.1,0.2-0.2,0.2-0.4S3.5,12.1,3.3,12c-0.1-0.1-0.2-0.2-0.4-0.2S2.7,11.8,2.6,12
		c-0.1,0.1-0.2,0.2-0.2,0.4s0.1,0.3,0.2,0.4c0.1,0.1,0.2,0.2,0.4,0.2S3.2,12.8,3.3,12.7z M13.4,7.4c0-0.3-0.1-0.6-0.3-0.8
		c-0.2-0.2-0.5-0.3-0.8-0.3h-3c0-0.3,0.1-0.8,0.4-1.4c0.3-0.6,0.4-1,0.4-1.4c0-0.6-0.1-1-0.3-1.2C9.7,2,9.3,1.9,8.7,1.9
		C8.6,2,8.5,2.3,8.4,2.6S8.3,3.3,8.2,3.7C8.1,4.1,7.9,4.4,7.6,4.6C7.5,4.8,7.3,5,7,5.4c0,0-0.1,0.1-0.2,0.3C6.7,5.8,6.6,5.9,6.5,6
		S6.3,6.2,6.2,6.4S6,6.7,5.9,6.8S5.7,7,5.5,7.1S5.3,7.3,5.2,7.3C5.1,7.4,5,7.4,4.9,7.4H4.6v5.5h0.3c0.1,0,0.2,0,0.3,0
		c0.1,0,0.2,0,0.3,0.1c0.1,0,0.2,0.1,0.3,0.1c0.1,0,0.2,0.1,0.3,0.1c0.1,0,0.2,0.1,0.3,0.1c0.1,0,0.2,0.1,0.2,0.1
		C7.8,13.8,8.8,14,9.6,14h1c1.1,0,1.7-0.5,1.7-1.4c0-0.1,0-0.3,0-0.5c0.2-0.1,0.3-0.2,0.4-0.5c0.1-0.2,0.2-0.4,0.2-0.6
		c0-0.2-0.1-0.4-0.2-0.6c0.3-0.3,0.5-0.6,0.5-1c0-0.1,0-0.3-0.1-0.5c-0.1-0.2-0.1-0.3-0.2-0.4c0.2,0,0.3-0.1,0.5-0.4
		C13.4,7.8,13.4,7.6,13.4,7.4z"/>
</g>
</svg>
