<?xml version="1.0" encoding="utf-8"?>
<!-- Generator: Adobe Illustrator 20.1.0, SVG Export Plug-In . SVG Version: 6.00 Build 0)  -->
<svg version="1.1" id="Layer_1" xmlns="http://www.w3.org/2000/svg" xmlns:xlink="http://www.w3.org/1999/xlink" x="0px" y="0px"
	 viewBox="0 0 16 16" style="enable-background:new 0 0 16 16;" xml:space="preserve">
<style type="text/css">
	.st0{fill:#676767;}
</style>
<g>
	<path class="st0" d="M14.6,7.4c0,0.5-0.1,1-0.4,1.4c0.1,0.2,0.1,0.4,0.1,0.6c0,0.4-0.1,0.8-0.3,1.2c0,0.1,0,0.2,0,0.4
		c0,0.6-0.2,1.1-0.5,1.5c0,0.8-0.2,1.4-0.7,1.9c-0.5,0.5-1.1,0.7-1.9,0.7h-0.3H9.6c-0.5,0-1.1-0.1-1.6-0.2c-0.5-0.1-1.2-0.3-1.9-0.6
		C5.5,14.1,5.1,14,5,14H2.5c-0.3,0-0.6-0.1-0.8-0.3c-0.2-0.2-0.3-0.5-0.3-0.8V7.5c0-0.3,0.1-0.6,0.3-0.8C2,6.5,2.2,6.4,2.5,6.4h2.3
		C5.1,6.2,5.5,5.8,6,5C6.4,4.6,6.7,4.2,7,3.9c0.1-0.1,0.2-0.4,0.3-0.7s0.2-0.7,0.3-1.1c0.1-0.4,0.3-0.7,0.5-0.9
		C8.3,1,8.5,0.9,8.8,0.9c0.5,0,0.9,0.1,1.3,0.3C10.5,1.3,10.8,1.6,11,2s0.3,0.9,0.3,1.6c0,0.5-0.1,1.1-0.4,1.6h1.5
		c0.6,0,1.1,0.2,1.5,0.7C14.4,6.3,14.6,6.9,14.6,7.4z M3.5,12.8c0.1-0.1,0.2-0.2,0.2-0.4c0-0.1-0.1-0.3-0.2-0.4
		c-0.1-0.1-0.2-0.2-0.4-0.2c-0.1,0-0.3,0.1-0.4,0.2c-0.1,0.1-0.2,0.2-0.2,0.4c0,0.1,0.1,0.3,0.2,0.4c0.1,0.1,0.2,0.2,0.4,0.2
		C3.2,12.9,3.3,12.9,3.5,12.8z M13.5,7.5c0-0.3-0.1-0.5-0.3-0.8c-0.2-0.2-0.5-0.3-0.8-0.3h-3C9.4,6,9.5,5.6,9.8,5s0.4-1,0.4-1.4
		c0-0.6-0.1-1-0.3-1.2C9.7,2.1,9.4,2,8.8,2C8.7,2.1,8.6,2.4,8.5,2.7C8.4,3,8.3,3.4,8.2,3.8C8.1,4.2,8,4.5,7.7,4.7
		C7.6,4.8,7.4,5.1,7.1,5.5c0,0-0.1,0.1-0.2,0.3C6.8,5.9,6.7,6,6.6,6.1C6.5,6.2,6.4,6.3,6.3,6.5C6.2,6.6,6.1,6.7,6,6.8
		C5.9,6.9,5.8,7,5.6,7.1C5.5,7.2,5.4,7.3,5.3,7.4C5.2,7.4,5.1,7.5,5,7.5H4.7v5.5H5c0.1,0,0.2,0,0.3,0c0.1,0,0.2,0,0.3,0.1
		c0.1,0,0.2,0.1,0.3,0.1c0.1,0,0.2,0.1,0.3,0.1s0.2,0.1,0.3,0.1c0.1,0,0.2,0.1,0.2,0.1C7.9,13.8,8.9,14,9.6,14h1
		c1.1,0,1.6-0.5,1.6-1.4c0-0.1,0-0.3,0-0.5c0.2-0.1,0.3-0.2,0.4-0.4c0.1-0.2,0.1-0.4,0.1-0.6s-0.1-0.4-0.2-0.6
		c0.3-0.3,0.5-0.6,0.5-1c0-0.1,0-0.3-0.1-0.5c-0.1-0.2-0.1-0.3-0.2-0.4c0.2,0,0.3-0.1,0.5-0.4C13.4,7.9,13.5,7.7,13.5,7.5z"/>
</g>
</svg>
