<?xml version="1.0" encoding="utf-8"?>
<!-- Generator: Adobe Illustrator 20.1.0, SVG Export Plug-In . SVG Version: 6.00 Build 0)  -->
<svg version="1.1" id="Layer_1" xmlns="http://www.w3.org/2000/svg" xmlns:xlink="http://www.w3.org/1999/xlink" x="0px" y="0px"
	 viewBox="0 0 16 16" style="enable-background:new 0 0 16 16;" xml:space="preserve">
<style type="text/css">
	.st0{fill:#F68D42;}
</style>
<g>
	<path class="st0" d="M11.6,3.1C11.6,3.1,11.6,3.1,11.6,3.1C11,4.2,10,5.9,8.8,8c-1.2,2.2-2.1,3.8-2.7,4.9l-0.4,0.8
		c-0.1,0.1-0.1,0.1-0.2,0.1c-0.1,0-0.5-0.2-1.2-0.6c-0.1-0.1-0.1-0.1-0.1-0.2c0-0.1,0.1-0.3,0.4-0.8c-0.8-0.4-1.6-0.9-2.3-1.5
		C1.6,10.1,1,9.4,0.5,8.6C0.4,8.5,0.3,8.3,0.3,8c0-0.2,0.1-0.4,0.2-0.6c0.9-1.3,2-2.4,3.3-3.2C5.1,3.5,6.5,3.1,8,3.1
		c0.5,0,1,0,1.6,0.1L10,2.4c0.1-0.1,0.1-0.1,0.2-0.1c0,0,0.1,0,0.2,0.1c0.1,0,0.2,0.1,0.3,0.1s0.2,0.1,0.3,0.2
		c0.1,0.1,0.2,0.1,0.3,0.2c0.1,0.1,0.2,0.1,0.2,0.1C11.5,2.9,11.6,3,11.6,3.1z M5.1,11.3l0.7-1.2C5.3,9.7,4.9,9.2,4.6,8.7
		C4.3,8.1,4.2,7.5,4.2,6.9c0-0.7,0.2-1.3,0.5-1.9C3.4,5.7,2.3,6.7,1.4,8C2.4,9.5,3.6,10.6,5.1,11.3z M8.3,5c0.1-0.1,0.1-0.2,0.1-0.3
		s0-0.2-0.1-0.3C8.2,4.4,8.1,4.3,8,4.3c-0.7,0-1.3,0.3-1.8,0.8C5.7,5.6,5.4,6.2,5.4,6.9c0,0.1,0,0.2,0.1,0.3
		c0.1,0.1,0.2,0.1,0.3,0.1c0.1,0,0.2,0,0.3-0.1C6.2,7.1,6.2,7,6.2,6.9c0-0.5,0.2-0.9,0.5-1.3C7.1,5.3,7.5,5.1,8,5.1
		C8.1,5.1,8.2,5.1,8.3,5z M15.7,8c0,0.2-0.1,0.4-0.2,0.6C15.3,9,15,9.4,14.6,9.9c-0.9,1-1.9,1.8-3,2.3S9.3,13,8,13l0.6-1.1
		c1.2-0.1,2.3-0.5,3.4-1.2s1.9-1.6,2.6-2.6c-0.7-1-1.5-1.9-2.4-2.5l0.5-1c0.5,0.4,1.1,0.8,1.6,1.3c0.5,0.5,0.9,1,1.2,1.6
		C15.7,7.6,15.7,7.8,15.7,8z M11.9,6.9c0,0.8-0.2,1.5-0.7,2.2s-1.1,1.1-1.8,1.4l2.4-4.3C11.9,6.5,11.9,6.7,11.9,6.9z"/>
</g>
</svg>
