<?xml version="1.0" encoding="utf-8"?>
<!-- Generator: Adobe Illustrator 20.1.0, SVG Export Plug-In . SVG Version: 6.00 Build 0)  -->
<svg version="1.1" id="Layer_1" xmlns="http://www.w3.org/2000/svg" xmlns:xlink="http://www.w3.org/1999/xlink" x="0px" y="0px"
	 viewBox="0 0 16 16" style="enable-background:new 0 0 16 16;" xml:space="preserve">
<style type="text/css">
	.st0{fill:#F68D42;}
</style>
<g>
	<path class="st0" d="M15.7,8c0,0.2-0.1,0.4-0.2,0.6c-0.8,1.3-1.9,2.4-3.2,3.2S9.5,13,8,13s-2.9-0.4-4.3-1.2S1.3,9.9,0.5,8.6
		C0.4,8.4,0.3,8.2,0.3,8c0-0.2,0.1-0.4,0.2-0.6C1.3,6.1,2.4,5,3.7,4.3S6.5,3.1,8,3.1s2.9,0.4,4.3,1.2s2.4,1.8,3.2,3.1
		C15.6,7.6,15.7,7.8,15.7,8z M14.6,8c-0.9-1.3-2-2.4-3.3-3c0.3,0.6,0.5,1.2,0.5,1.9c0,1.1-0.4,2-1.1,2.7C10,10.4,9.1,10.7,8,10.7
		s-2-0.4-2.7-1.1C4.5,8.9,4.2,8,4.2,6.9c0-0.7,0.2-1.3,0.5-1.9C3.4,5.6,2.3,6.7,1.4,8c0.8,1.2,1.7,2.1,2.9,2.8c1.1,0.7,2.4,1,3.7,1
		s2.6-0.3,3.7-1C12.9,10.1,13.8,9.2,14.6,8z M8.3,5c0.1-0.1,0.1-0.2,0.1-0.3c0-0.1,0-0.2-0.1-0.3C8.2,4.3,8.1,4.3,8,4.3
		c-0.7,0-1.3,0.3-1.8,0.8S5.4,6.2,5.4,6.9c0,0.1,0,0.2,0.1,0.3s0.2,0.1,0.3,0.1c0.1,0,0.2,0,0.3-0.1S6.2,7,6.2,6.9
		c0-0.5,0.2-0.9,0.5-1.3C7.1,5.3,7.5,5.1,8,5.1C8.1,5.1,8.2,5.1,8.3,5z"/>
</g>
</svg>
