<?xml version="1.0" encoding="utf-8"?>
<!-- Generator: Adobe Illustrator 20.1.0, SVG Export Plug-In . SVG Version: 6.00 Build 0)  -->
<svg version="1.1" id="Layer_1" xmlns="http://www.w3.org/2000/svg" xmlns:xlink="http://www.w3.org/1999/xlink" x="0px" y="0px"
	 viewBox="0 0 5.9 10.1" style="enable-background:new 0 0 5.9 10.1;" xml:space="preserve">
<style type="text/css">
	.st0{fill:#7F8080;}
</style>
<g>
	<path class="st0" d="M5.1,10.1c-0.1,0-0.2,0-0.2-0.1L0.1,5.3C0,5.2,0,5.2,0,5.1s0-0.2,0.1-0.2l4.7-4.8C4.9,0,5,0,5.1,0
		c0.1,0,0.2,0,0.2,0.1l0.5,0.5c0.1,0.1,0.1,0.2,0.1,0.2s0,0.2-0.1,0.3l-4,4l4,4c0.1,0,0.1,0.1,0.1,0.2s0,0.2-0.1,0.2L5.3,10
		C5.2,10.1,5.1,10.1,5.1,10.1z"/>
</g>
</svg>
