<?xml version="1.0" encoding="utf-8"?>
<!-- Generator: Adobe Illustrator 19.1.0, SVG Export Plug-In . SVG Version: 6.00 Build 0)  -->
<svg version="1.1" id="Layer_1" xmlns="http://www.w3.org/2000/svg" xmlns:xlink="http://www.w3.org/1999/xlink" x="0px" y="0px"
	 viewBox="0 0 41 41" style="enable-background:new 0 0 41 41;" xml:space="preserve">
<style type="text/css">
	.st0{fill:#FFFFFF;}
</style>
<path class="st0" d="M20.9,41l0-1c0.3,0,0.7,0,1,0l0.1,1C21.6,41,21.3,41,20.9,41z M18.9,40.9c-0.3,0-0.7-0.1-1-0.1l0.1-1
	c0.3,0,0.6,0.1,1,0.1L18.9,40.9z M24,40.7l-0.2-1c0.3-0.1,0.6-0.1,1-0.2l0.2,1C24.7,40.6,24.3,40.6,24,40.7z M15.9,40.5
	c-0.3-0.1-0.7-0.2-1-0.3l0.3-1c0.3,0.1,0.6,0.2,0.9,0.2L15.9,40.5z M27,40L26.7,39c0.3-0.1,0.6-0.2,0.9-0.3l0.4,0.9
	C27.6,39.7,27.3,39.8,27,40z M12.9,39.6c-0.3-0.1-0.6-0.3-0.9-0.4l0.4-0.9c0.3,0.1,0.6,0.3,0.9,0.4L12.9,39.6z M29.8,38.8l-0.5-0.9
	c0.3-0.1,0.6-0.3,0.9-0.5l0.5,0.9C30.4,38.5,30.1,38.6,29.8,38.8z M10.2,38.2c-0.3-0.2-0.6-0.4-0.9-0.5l0.5-0.8
	c0.3,0.2,0.5,0.4,0.8,0.5L10.2,38.2z M32.4,37.2l-0.6-0.8c0.3-0.2,0.5-0.4,0.8-0.6l0.6,0.8C33,36.8,32.7,37,32.4,37.2z M7.6,36.5
	c-0.3-0.2-0.5-0.4-0.8-0.7L7.5,35c0.2,0.2,0.5,0.4,0.7,0.6L7.6,36.5z M34.8,35.2l-0.7-0.7c0.2-0.2,0.5-0.5,0.7-0.7l0.7,0.7
	C35.3,34.7,35,35,34.8,35.2z M5.4,34.4c-0.2-0.3-0.5-0.5-0.7-0.8l0.8-0.6c0.2,0.2,0.4,0.5,0.6,0.7L5.4,34.4z M36.8,32.9L36,32.3
	c0.2-0.3,0.4-0.5,0.6-0.8l0.8,0.6C37.2,32.4,37,32.6,36.8,32.9z M3.5,31.9c-0.2-0.3-0.4-0.6-0.6-0.9l0.9-0.5
	c0.2,0.3,0.3,0.6,0.5,0.8L3.5,31.9z M38.5,30.3l-0.9-0.5c0.2-0.3,0.3-0.6,0.4-0.9l0.9,0.4C38.8,29.7,38.7,30,38.5,30.3z M2,29.3
	c-0.1-0.3-0.3-0.6-0.4-0.9L2.5,28c0.1,0.3,0.3,0.6,0.4,0.9L2,29.3z M39.8,27.5l-0.9-0.3c0.1-0.3,0.2-0.6,0.3-0.9l1,0.3
	C40,26.9,39.9,27.2,39.8,27.5z M0.9,26.4c-0.1-0.3-0.2-0.7-0.3-1l1-0.2c0.1,0.3,0.2,0.6,0.3,0.9L0.9,26.4z M40.6,24.6l-1-0.2
	c0.1-0.3,0.1-0.6,0.2-1l1,0.1C40.7,23.9,40.7,24.2,40.6,24.6z M0.2,23.4c0-0.3-0.1-0.7-0.1-1l1-0.1c0,0.3,0.1,0.6,0.1,1L0.2,23.4z
	 M41,21.5l-1-0.1c0-0.3,0-0.6,0-1h1C41,20.8,41,21.2,41,21.5z M1,20.4l-1,0c0-0.3,0-0.7,0-1l1,0.1C1,19.7,1,20,1,20.4z M39.9,18.8
	c0-0.3-0.1-0.6-0.1-1l1-0.1c0,0.3,0.1,0.7,0.1,1L39.9,18.8z M1.2,17.4l-1-0.2c0.1-0.3,0.1-0.7,0.2-1l1,0.2
	C1.3,16.8,1.3,17.1,1.2,17.4z M39.5,15.9c-0.1-0.3-0.2-0.6-0.3-0.9l1-0.3c0.1,0.3,0.2,0.7,0.3,1L39.5,15.9z M1.9,14.6l-1-0.3
	c0.1-0.3,0.2-0.7,0.3-1l0.9,0.4C2.1,14,2,14.3,1.9,14.6z M38.6,13.2c-0.1-0.3-0.3-0.6-0.4-0.9l0.9-0.4c0.1,0.3,0.3,0.6,0.4,0.9
	L38.6,13.2z M3,11.9l-0.9-0.4c0.2-0.3,0.3-0.6,0.5-0.9L3.5,11C3.3,11.3,3.1,11.6,3,11.9z M37.3,10.6c-0.2-0.3-0.3-0.6-0.5-0.8
	l0.8-0.6c0.2,0.3,0.4,0.6,0.5,0.9L37.3,10.6z M4.5,9.4L3.7,8.8C3.9,8.5,4.1,8.2,4.3,8l0.8,0.6C4.9,8.8,4.7,9.1,4.5,9.4z M35.6,8.2
	c-0.2-0.3-0.4-0.5-0.6-0.7l0.7-0.7c0.2,0.3,0.5,0.5,0.7,0.8L35.6,8.2z M6.3,7.1L5.6,6.4c0.2-0.2,0.5-0.5,0.7-0.7L7,6.4
	C6.8,6.6,6.5,6.9,6.3,7.1z M33.6,6c-0.2-0.2-0.5-0.4-0.7-0.6l0.6-0.8c0.3,0.2,0.5,0.4,0.8,0.7L33.6,6z M8.5,5.1L7.9,4.3
	c0.3-0.2,0.5-0.4,0.8-0.6l0.6,0.8C9,4.7,8.7,4.9,8.5,5.1z M31.3,4.2c-0.3-0.2-0.5-0.4-0.8-0.5L31,2.9c0.3,0.2,0.6,0.4,0.9,0.5
	L31.3,4.2z M10.9,3.5l-0.5-0.9c0.3-0.2,0.6-0.3,0.9-0.5l0.4,0.9C11.5,3.2,11.2,3.4,10.9,3.5z M28.7,2.8c-0.3-0.1-0.6-0.3-0.9-0.4
	l0.4-0.9c0.3,0.1,0.6,0.3,0.9,0.4L28.7,2.8z M13.6,2.3l-0.4-0.9c0.3-0.1,0.6-0.2,1-0.3l0.3,1C14.2,2,13.9,2.2,13.6,2.3z M26,1.8
	c-0.3-0.1-0.6-0.2-0.9-0.3l0.2-1c0.3,0.1,0.7,0.2,1,0.3L26,1.8z M16.4,1.4l-0.2-1c0.3-0.1,0.7-0.1,1-0.2l0.2,1
	C17,1.3,16.7,1.4,16.4,1.4z M23.1,1.2c-0.3,0-0.6-0.1-1-0.1l0.1-1c0.3,0,0.7,0.1,1,0.1L23.1,1.2z M19.2,1l-0.1-1c0.3,0,0.7,0,1,0
	l0,1C19.9,1,19.6,1,19.2,1z"/>
<path class="st0" d="M20.5,32.6c-0.4,0-0.6-0.3-0.6-0.7V9c0-0.4,0.3-0.7,0.6-0.7s0.6,0.3,0.6,0.7v23C21.1,32.4,20.9,32.6,20.5,32.6z
	"/>
<path class="st0" d="M32,21.1H9c-0.4,0-0.6-0.3-0.6-0.7s0.3-0.7,0.6-0.7h23c0.4,0,0.6,0.3,0.6,0.7S32.4,21.1,32,21.1z"/>
</svg>
