<?xml version="1.0" encoding="utf-8"?>
<!-- Generator: Adobe Illustrator 19.1.0, SVG Export Plug-In . SVG Version: 6.00 Build 0)  -->
<svg version="1.1" id="Layer_1" xmlns="http://www.w3.org/2000/svg" xmlns:xlink="http://www.w3.org/1999/xlink" x="0px" y="0px"
	 viewBox="0 0 10.1 5.9" style="enable-background:new 0 0 10.1 5.9;" xml:space="preserve">
<style type="text/css">
	.st0{fill:#FFFFFF;}
</style>
<g>
	<path class="st0" d="M10.1,0.8c0,0.1,0,0.2-0.1,0.2L5.3,5.8C5.2,5.9,5.2,5.9,5.1,5.9c-0.1,0-0.2,0-0.2-0.1L0.1,1.1C0,1,0,0.9,0,0.8
		c0-0.1,0-0.2,0.1-0.2l0.5-0.5C0.7,0,0.8,0,0.8,0S1,0,1.1,0.1l4,4l4-4C9.1,0,9.2,0,9.3,0c0.1,0,0.2,0,0.2,0.1L10,0.6
		C10.1,0.7,10.1,0.8,10.1,0.8z"/>
</g>
</svg>
