<?xml version="1.0" encoding="utf-8"?>
<!-- Generator: Adobe Illustrator 19.1.0, SVG Export Plug-In . SVG Version: 6.00 Build 0)  -->
<svg version="1.1" id="Layer_1" xmlns="http://www.w3.org/2000/svg" xmlns:xlink="http://www.w3.org/1999/xlink" x="0px" y="0px"
	 viewBox="0 0 214.3 87.3" style="enable-background:new 0 0 214.3 87.3;" xml:space="preserve">
<style type="text/css">
	.st0{fill:#FFFFFF;}
	.st1{fill:#ED1965;}
	.st2{fill:#A44B9C;}
	.st3{fill:#AEADAE;}
	.st4{fill:none;stroke:#FFFFFF;stroke-width:1.3;stroke-linecap:round;stroke-linejoin:round;stroke-miterlimit:10;}
	.st5{opacity:0.3;fill:#FFFFFF;}
</style>
<polygon class="st0" points="10.1,11 0,16.5 10.4,20.3 "/>
<g>
	<path class="st1" d="M76.3,87.3H48.8c-1.7,0-3-1.3-3-3V57c0-1.7,1.3-3,3-3h27.5c1.7,0,3,1.3,3,3v27.3C79.3,86,78,87.3,76.3,87.3z"
		/>
	<g id="XMLID_146_">
		<g>
			<path id="XMLID_153_" class="st0" d="M64,64.6h1.2v12.7H64V64.6z"/>
			<path id="XMLID_151_" class="st0" d="M60.9,64.6h1.2v12.7h-1.2V64.6z"/>
			<path id="XMLID_149_" class="st0" d="M57.9,62h1.2v9.6h-1.2V62z"/>
			<path id="XMLID_147_" class="st0" d="M67.1,64.6h1.2v7h-1.2V64.6z"/>
		</g>
	</g>
</g>
<g>
	<path class="st2" d="M142.7,87.3h-27.5c-1.6,0-3-1.3-3-3V57c0-1.7,1.4-3,3-3h27.5c1.7,0,3,1.3,3,3v27.3
		C145.7,86,144.3,87.3,142.7,87.3z"/>
	<g>
		<g>
			<path class="st0" d="M128.9,70.7c-1.9,0-3.5-1.6-3.5-3.5c0-1.9,1.6-3.5,3.5-3.5c1.9,0,3.5,1.6,3.5,3.5
				C132.4,69.1,130.9,70.7,128.9,70.7z M128.9,64.5c-1.5,0-2.7,1.2-2.7,2.7c0,1.5,1.2,2.7,2.7,2.7s2.7-1.2,2.7-2.7
				C131.7,65.7,130.4,64.5,128.9,64.5z"/>
			<path class="st0" d="M134.8,77.7c-0.2,0-0.4-0.2-0.4-0.4c0-3-2.5-5.5-5.5-5.5c-3,0-5.5,2.5-5.5,5.5c0,0.2-0.2,0.4-0.4,0.4
				s-0.4-0.2-0.4-0.4c0-3.4,2.8-6.2,6.2-6.2c3.4,0,6.2,2.8,6.2,6.2C135.2,77.5,135,77.7,134.8,77.7z"/>
		</g>
	</g>
</g>
<g>
	<path class="st3" d="M211.3,87.3h-27.5c-1.7,0-3-1.3-3-3V57c0-1.7,1.3-3,3-3h27.5c1.7,0,3,1.3,3,3v27.3
		C214.3,86,212.9,87.3,211.3,87.3z"/>
	<g>
		<g>
			<path class="st4" d="M197.2,62.3c0,0-4.4,2.7-4.4,8.3c0,5.8,4.4,8.3,4.4,8.3"/>
			<path class="st4" d="M197.8,62.3c0,0,4.4,2.7,4.4,8.3c0,5.8-4.4,8.3-4.4,8.3"/>
			<path class="st4" d="M203.8,75.9c-1.4-1.1-3.5-2.2-6.3-2.2c-2.9,0-5,1.1-6.3,2.1"/>
			<g>
				<g>
					<path class="st0" d="M197.5,62.6c2.2,0,4.2,0.9,5.8,2.4c1.4,1.5,2.2,3.5,2.2,5.5c0,4.4-3.6,8-8,8c-4.4,0-8-3.6-8-8
						c0-2.1,0.8-4,2.3-5.6C193.3,63.5,195.3,62.6,197.5,62.6 M197.5,61.9c-2.4,0-4.6,1-6.2,2.6c-1.5,1.5-2.4,3.7-2.4,6.1
						c0,4.8,3.9,8.7,8.7,8.7s8.7-3.9,8.7-8.7c0-2.3-0.9-4.4-2.4-6C202.1,63,200,61.9,197.5,61.9L197.5,61.9z"/>
				</g>
			</g>
			<path class="st4" d="M191.6,64.8c1.3,1,3.3,2,5.9,2c2.7,0,4.6-0.9,6-1.9"/>
		</g>
		<line class="st4" x1="189.3" y1="70.6" x2="205.6" y2="70.6"/>
		<line class="st4" x1="197.5" y1="62.5" x2="197.5" y2="78.7"/>
	</g>
</g>
<path class="st5" d="M63.6,54h-2c0-0.6,0-1.3-0.1-1.9l2-0.2C63.5,52.6,63.6,53.3,63.6,54z M124.8,52.7c-0.2-0.6-0.4-1.2-0.6-1.8
	l1.9-0.7c0.2,0.6,0.4,1.3,0.7,1.9L124.8,52.7z M60.9,48.3c-0.2-0.6-0.3-1.2-0.5-1.8l1.9-0.6c0.2,0.7,0.4,1.3,0.6,2L60.9,48.3z
	 M122.7,47.3c-0.3-0.6-0.6-1.2-0.9-1.7l1.8-1c0.3,0.6,0.6,1.2,0.9,1.8L122.7,47.3z M58.8,43c-0.3-0.6-0.6-1.1-1-1.7l1.7-1.1
	c0.4,0.6,0.7,1.2,1,1.8L58.8,43z M119.8,42.2c-0.4-0.5-0.7-1.1-1.1-1.6l1.6-1.2c0.4,0.5,0.8,1.1,1.2,1.7L119.8,42.2z M55.6,38.2
	c-0.4-0.5-0.8-1-1.3-1.5l1.5-1.4c0.5,0.5,0.9,1,1.4,1.5L55.6,38.2z M116.1,37.7c-0.4-0.5-0.9-1-1.4-1.4l1.4-1.4c0.5,0.5,1,1,1.4,1.5
	L116.1,37.7z M51.5,34c-0.5-0.4-1-0.8-1.5-1.3l1.2-1.6c0.5,0.4,1.1,0.9,1.6,1.3L51.5,34z M111.9,33.6c-0.5-0.4-1-0.8-1.5-1.2
	l1.2-1.6c0.5,0.4,1.1,0.8,1.6,1.3L111.9,33.6z M46.9,30.4c-0.5-0.4-1.1-0.7-1.6-1.1l1.1-1.7c0.6,0.4,1.1,0.7,1.7,1.1L46.9,30.4z
	 M107.2,30.1c-0.5-0.4-1.1-0.7-1.7-1.1l1.1-1.7c0.6,0.4,1.1,0.7,1.7,1.1L107.2,30.1z M41.8,27.4c-0.6-0.3-1.2-0.6-1.7-0.9l0.9-1.8
	c0.6,0.3,1.2,0.6,1.8,1L41.8,27.4z M102.1,27c-0.6-0.3-1.2-0.6-1.8-0.9l0.9-1.8c0.6,0.3,1.2,0.6,1.8,0.9L102.1,27z M36.5,24.7
	c-0.6-0.3-1.2-0.5-1.8-0.8l0.8-1.8c0.6,0.3,1.2,0.5,1.9,0.8L36.5,24.7z M96.8,24.5c-0.6-0.3-1.2-0.5-1.8-0.8l0.7-1.9
	c0.6,0.3,1.2,0.5,1.9,0.8L96.8,24.5z M31,22.4c-0.6-0.2-1.2-0.5-1.9-0.7l0.7-1.9c0.6,0.2,1.3,0.5,1.9,0.7L31,22.4z M91.3,22.3
	c-0.6-0.2-1.2-0.4-1.9-0.6l0.6-1.9c0.6,0.2,1.3,0.4,1.9,0.7L91.3,22.3z M85.6,20.5c-0.6-0.2-1.3-0.4-1.9-0.5l0.5-1.9
	c0.7,0.2,1.3,0.4,1.9,0.5L85.6,20.5z M25.4,20.5c-0.6-0.2-1.3-0.4-1.9-0.6l0.6-1.9c0.6,0.2,1.3,0.4,1.9,0.6L25.4,20.5z M79.9,19
	c-0.6-0.1-1.3-0.3-1.9-0.4l0.4-2c0.7,0.1,1.3,0.3,2,0.4L79.9,19z M19.7,18.8c-0.7-0.2-1.3-0.3-1.9-0.5l0.5-1.9
	c0.6,0.2,1.3,0.3,2,0.5L19.7,18.8z M74,17.8c-0.7-0.1-1.3-0.2-2-0.3l0.3-2c0.7,0.1,1.3,0.2,2,0.4L74,17.8z M13.9,17.4
	c-0.8-0.2-1.4-0.3-1.9-0.4l0.4-2c0,0,0,0,0,0l-0.1-0.6c0.6-0.1,1.2-0.1,2-0.2l0.2,2c-0.1,0-0.2,0-0.3,0L13.9,17.4z M68.1,16.9
	c-0.7-0.1-1.3-0.2-2-0.3l0.3-2c0.7,0.1,1.3,0.2,2,0.3L68.1,16.9z M62.2,16.1c-0.7-0.1-1.3-0.1-2-0.2l0.2-2c0.7,0.1,1.3,0.1,2,0.2
	L62.2,16.1z M18.4,15.8l-0.2-2c0.6-0.1,1.3-0.1,2-0.2l0.1,2C19.7,15.7,19.1,15.7,18.4,15.8z M56.3,15.6c-0.7-0.1-1.3-0.1-2-0.1
	l0.1-2c0.7,0,1.3,0.1,2,0.1L56.3,15.6z M24.4,15.4l-0.1-2c0.7,0,1.3-0.1,2-0.1l0.1,2C25.7,15.3,25,15.3,24.4,15.4z M50.3,15.2
	c-0.7,0-1.3-0.1-2-0.1l0.1-2c0.7,0,1.3,0.1,2,0.1L50.3,15.2z M30.4,15.1l-0.1-2c0.7,0,1.3,0,2-0.1l0.1,2
	C31.7,15.1,31,15.1,30.4,15.1z M44.3,15c-0.7,0-1.3,0-2,0l0-2c0.7,0,1.3,0,2,0L44.3,15z M36.4,15l0-2c0.7,0,1.3,0,2,0l0,2
	C37.7,14.9,37,15,36.4,15z"/>
<path class="st5" d="M196.4,51c-0.4-0.5-0.8-1.1-1.2-1.6l1.6-1.2c0.4,0.5,0.8,1.1,1.2,1.6L196.4,51z M192.8,46.2
	c-0.4-0.5-0.8-1-1.3-1.5l1.5-1.3c0.4,0.5,0.9,1,1.3,1.6L192.8,46.2z M188.9,41.7c-0.4-0.5-0.9-1-1.3-1.5l1.5-1.4
	c0.5,0.5,0.9,1,1.4,1.5L188.9,41.7z M184.9,37.4c-0.5-0.5-0.9-0.9-1.4-1.4l1.4-1.4c0.5,0.5,1,0.9,1.4,1.4L184.9,37.4z M180.6,33.3
	c-0.5-0.4-1-0.9-1.5-1.3l1.3-1.5c0.5,0.4,1,0.9,1.5,1.3L180.6,33.3z M176.1,29.4c-0.5-0.4-1-0.8-1.5-1.2l1.2-1.6
	c0.5,0.4,1.1,0.8,1.6,1.3L176.1,29.4z M171.4,25.8c-0.5-0.4-1.1-0.8-1.6-1.2l1.1-1.6c0.5,0.4,1.1,0.8,1.6,1.2L171.4,25.8z
	 M166.5,22.4c-0.6-0.4-1.1-0.7-1.7-1.1l1.1-1.7c0.6,0.4,1.1,0.7,1.7,1.1L166.5,22.4z M161.4,19.3c-0.6-0.3-1.1-0.7-1.7-1l1-1.7
	c0.6,0.3,1.2,0.7,1.8,1L161.4,19.3z M10.6,16.6l-0.7-1.9l0.2-0.1l0.7,1.9L10.6,16.6z M156.2,16.4c-0.6-0.3-1.2-0.6-1.8-0.9l0.9-1.8
	c0.6,0.3,1.2,0.6,1.8,0.9L156.2,16.4z M14.5,15.1l-0.7-1.9c0.6-0.2,1.2-0.4,1.9-0.7l0.6,1.9C15.7,14.7,15.1,14.9,14.5,15.1z
	 M150.8,13.9c-0.6-0.3-1.2-0.5-1.8-0.8l0.8-1.8c0.6,0.3,1.2,0.5,1.8,0.8L150.8,13.9z M20.2,13.2l-0.6-1.9c0.6-0.2,1.3-0.4,1.9-0.6
	l0.6,1.9C21.4,12.9,20.8,13.1,20.2,13.2z M145.3,11.6c-0.6-0.2-1.2-0.5-1.9-0.7l0.7-1.9c0.6,0.2,1.3,0.5,1.9,0.7L145.3,11.6z
	 M25.9,11.5l-0.6-1.9c0.6-0.2,1.3-0.4,1.9-0.5l0.5,1.9C27.2,11.2,26.5,11.3,25.9,11.5z M31.7,9.9L31.2,8c0.6-0.2,1.3-0.3,1.9-0.5
	l0.5,1.9C33,9.6,32.3,9.8,31.7,9.9z M139.7,9.5c-0.6-0.2-1.3-0.4-1.9-0.6l0.6-1.9c0.6,0.2,1.3,0.4,1.9,0.6L139.7,9.5z M37.5,8.5
	L37,6.5c0.6-0.2,1.3-0.3,2-0.5L39.4,8C38.8,8.2,38.1,8.3,37.5,8.5z M134,7.8c-0.6-0.2-1.3-0.4-1.9-0.5l0.5-1.9
	c0.6,0.2,1.3,0.4,1.9,0.5L134,7.8z M43.3,7.2l-0.4-2c0.6-0.1,1.3-0.3,2-0.4l0.4,2C44.6,6.9,44,7,43.3,7.2z M128.2,6.2
	c-0.6-0.2-1.3-0.3-1.9-0.4l0.4-2c0.7,0.1,1.3,0.3,2,0.5L128.2,6.2z M49.2,6l-0.4-2c0.7-0.1,1.3-0.2,2-0.4l0.4,2
	C50.5,5.8,49.8,5.9,49.2,6z M122.4,5c-0.7-0.1-1.3-0.3-2-0.4l0.4-2c0.7,0.1,1.3,0.2,2,0.4L122.4,5z M55.1,5l-0.3-2
	c0.7-0.1,1.3-0.2,2-0.3l0.3,2C56.4,4.8,55.7,4.9,55.1,5z M61,4.1l-0.3-2c0.7-0.1,1.3-0.2,2-0.3l0.3,2C62.3,3.9,61.6,4,61,4.1z
	 M116.5,3.9c-0.7-0.1-1.3-0.2-2-0.3l0.3-2c0.7,0.1,1.3,0.2,2,0.3L116.5,3.9z M66.9,3.3l-0.2-2c0.7-0.1,1.3-0.1,2-0.2l0.2,2
	C68.2,3.2,67.6,3.3,66.9,3.3z M110.6,3.1c-0.7-0.1-1.3-0.1-2-0.2l0.2-2c0.7,0.1,1.3,0.1,2,0.2L110.6,3.1z M72.9,2.8l-0.2-2
	c0.7-0.1,1.3-0.1,2-0.2l0.2,2C74.2,2.6,73.5,2.7,72.9,2.8z M104.7,2.6c-0.7-0.1-1.3-0.1-2-0.1l0.1-2c0.7,0,1.3,0.1,2,0.1L104.7,2.6z
	 M78.8,2.3l-0.1-2c0.7,0,1.3-0.1,2-0.1l0.1,2C80.1,2.3,79.5,2.3,78.8,2.3z M98.7,2.2c-0.7,0-1.3-0.1-2-0.1l0.1-2
	c0.7,0,1.3,0.1,2,0.1L98.7,2.2z M84.8,2.1l-0.1-2c0.7,0,1.3,0,2,0l0,2C86.1,2,85.5,2.1,84.8,2.1z M92.8,2c-0.7,0-1.3,0-2,0l0-2
	c0.7,0,1.3,0,2,0L92.8,2z"/>
</svg>
