<?xml version="1.0" encoding="utf-8"?>
<!-- Generator: Adobe Illustrator 19.1.0, SVG Export Plug-In . SVG Version: 6.00 Build 0)  -->
<svg version="1.1" id="Layer_1" xmlns="http://www.w3.org/2000/svg" xmlns:xlink="http://www.w3.org/1999/xlink" x="0px" y="0px"
	 viewBox="-276 254.5 288.8 86.8" style="enable-background:new -276 254.5 288.8 86.8;" xml:space="preserve">
<style type="text/css">
	.st0{fill:#FFFFFF;}
</style>
<g>
	<path class="st0" d="M-68.1,281c4,4.9,6,10.2,6,15.9c0,5.7-2,11.1-6,15.9c-4,4.9-9.4,8.7-16.2,11.6c-6.8,2.8-14.2,4.2-22.3,4.2
		c-2.3,0-4.7-0.1-7.2-0.4c-6.5,5.8-14.1,9.8-22.8,12c-1.6,0.5-3.5,0.8-5.7,1.1h-0.2c-0.5,0-0.9-0.2-1.3-0.5
		c-0.4-0.3-0.7-0.8-0.8-1.4l0,0c-0.1-0.1-0.1-0.3,0-0.6c0.1-0.3,0.1-0.4,0.1-0.5s0.1-0.2,0.2-0.5c0.2-0.2,0.3-0.4,0.3-0.4
		s0.1-0.2,0.3-0.4c0.2-0.2,0.3-0.4,0.4-0.4c0.2-0.3,0.7-0.8,1.5-1.7c0.8-0.9,1.4-1.5,1.7-1.9c0.3-0.4,0.9-1,1.5-2
		c0.7-0.9,1.2-1.8,1.6-2.5c0.4-0.8,0.8-1.7,1.3-2.9c0.5-1.2,0.9-2.4,1.3-3.8c-5.2-2.9-9.3-6.6-12.3-10.9c-3-4.3-4.5-9-4.5-13.9
		c0-5.8,2-11.1,6-15.9c4-4.9,9.4-8.7,16.2-11.6c6.8-2.8,14.2-4.2,22.3-4.2s15.5,1.4,22.3,4.2C-77.5,272.2-72.1,276.1-68.1,281z
		 M-87.7,275c-5.9-2.3-12.2-3.4-18.9-3.4s-13.1,1.1-18.9,3.4c-5.9,2.3-10.5,5.4-14,9.3s-5.2,8.1-5.2,12.6c0,3.7,1.2,7.2,3.5,10.6
		c2.4,3.4,5.7,6.3,10,8.7l4.3,2.5l-1.3,4.8c-0.8,3-2,5.9-3.5,8.5c5-2.1,9.6-4.9,13.6-8.5l2.1-1.9l2.8,0.3c2.3,0.3,4.4,0.4,6.4,0.4
		c6.7,0,13-1.1,18.9-3.4c5.9-2.3,10.5-5.4,14-9.3c3.5-3.9,5.2-8.1,5.2-12.6s-1.7-8.7-5.2-12.6C-77.2,280.4-81.8,277.3-87.7,275z"/>
</g>
<g>
	<path class="st0" d="M-158.7,266.6c3,3.7,4.6,7.8,4.6,12.2s-1.5,8.5-4.6,12.2c-3,3.7-7.2,6.7-12.4,8.8c-5.2,2.2-10.9,3.2-17.1,3.2
		c-1.8,0-3.6-0.1-5.5-0.3c-5,4.4-10.8,7.5-17.4,9.2c-1.2,0.4-2.7,0.6-4.3,0.8h-0.2c-0.4,0-0.7-0.1-1-0.4c-0.3-0.3-0.5-0.6-0.6-1l0,0
		c-0.1-0.1-0.1-0.3,0-0.5s0.1-0.3,0.1-0.4s0-0.2,0.2-0.4c0.1-0.2,0.2-0.3,0.2-0.3s0.1-0.1,0.3-0.3c0.2-0.2,0.3-0.3,0.3-0.3
		c0.2-0.2,0.6-0.6,1.2-1.3c0.6-0.7,1-1.2,1.3-1.4c0.3-0.3,0.7-0.8,1.2-1.5c0.5-0.7,0.9-1.4,1.2-1.9c0.3-0.6,0.6-1.3,1-2.2
		s0.7-1.9,1-2.9c-4-2.2-7.1-5-9.4-8.3c-2.3-3.3-3.4-6.9-3.4-10.7c0-4.4,1.5-8.5,4.6-12.2c3-3.7,7.2-6.7,12.4-8.8
		c5-2.3,10.7-3.4,16.8-3.4c6.2,0,11.9,1.1,17.1,3.2C-165.9,259.9-161.8,262.8-158.7,266.6z M-173.7,262c-4.5-1.8-9.3-2.6-14.5-2.6
		s-10,0.9-14.5,2.6c-4.5,1.8-8.1,4.1-10.7,7.1s-4,6.2-4,9.7c0,2.8,0.9,5.5,2.7,8.1s4.4,4.8,7.6,6.7l3.3,1.9l-1,3.6
		c-0.6,2.3-1.5,4.5-2.7,6.5c3.8-1.6,7.3-3.8,10.4-6.5l1.6-1.4l2.2,0.2c1.7,0.2,3.4,0.3,4.9,0.3c5.2,0,10-0.9,14.5-2.6
		c4.5-1.8,8.1-4.1,10.7-7.1s4-6.2,4-9.7s-1.3-6.7-4-9.7C-165.6,266.1-169.2,263.7-173.7,262z"/>
</g>
<g>
	<path class="st0" d="M-234,281.2c2,2.5,3,5.2,3,8.1s-1,5.6-3,8.1s-4.7,4.4-8.2,5.9c-3.5,1.4-7.2,2.1-11.3,2.1
		c-1.2,0-2.4-0.1-3.6-0.2c-3.3,2.9-7.2,5-11.6,6.1c-0.8,0.2-1.8,0.4-2.9,0.6h-0.1c-0.3,0-0.5-0.1-0.7-0.3c-0.2-0.2-0.3-0.4-0.4-0.7
		l0,0c-0.1-0.1-0.1-0.2,0-0.3c0-0.1,0.1-0.2,0.1-0.3c0,0,0-0.1,0.1-0.2c0.1-0.1,0.1-0.2,0.2-0.2c0,0,0.1-0.1,0.2-0.2
		c0.1-0.1,0.2-0.2,0.2-0.2c0.1-0.1,0.4-0.4,0.8-0.9c0.4-0.4,0.7-0.8,0.9-1c0.2-0.2,0.4-0.5,0.8-1c0.3-0.5,0.6-0.9,0.8-1.3
		c0.2-0.4,0.4-0.9,0.7-1.5s0.5-1.2,0.7-1.9c-2.6-1.5-4.7-3.3-6.2-5.5c-1.7-2.3-2.5-4.7-2.5-7.2c0-2.9,1-5.6,3-8.1s4.7-4.4,8.2-5.9
		c3.5-1.4,7.2-2.1,11.3-2.1s7.9,0.7,11.3,2.1C-238.7,276.7-236,278.7-234,281.2z M-243.9,278.1c-3-1.2-6.2-1.7-9.6-1.7
		s-6.6,0.6-9.6,1.7c-3,1.2-5.3,2.7-7.1,4.7c-1.8,2-2.6,4.1-2.6,6.4c0,1.9,0.6,3.7,1.8,5.4c1.2,1.7,2.9,3.2,5.1,4.4l2.2,1.3l-0.7,2.4
		c-0.4,1.5-1,3-1.8,4.3c2.5-1.1,4.9-2.5,6.9-4.3l1.1-1l1.4,0.2c1.2,0.1,2.2,0.2,3.3,0.2c3.4,0,6.6-0.6,9.6-1.7
		c3-1.2,5.3-2.7,7.1-4.7s2.6-4.1,2.6-6.4c0-2.3-0.9-4.4-2.6-6.4C-238.6,280.8-240.9,279.3-243.9,278.1z"/>
</g>
<g>
	<path class="st0" d="M-8.5,289.2c2,2.5,3,5.2,3,8.1s-1,5.6-3,8.1s-4.7,4.4-8.2,5.9c-3.5,1.4-7.2,2.1-11.3,2.1
		c-1.2,0-2.4-0.1-3.6-0.2c-3.3,2.9-7.2,5-11.6,6.1c-0.8,0.2-1.8,0.4-2.9,0.6h-0.1c-0.3,0-0.5-0.1-0.7-0.3c-0.2-0.2-0.3-0.4-0.4-0.7
		l0,0c-0.1-0.1-0.1-0.2,0-0.3c0-0.1,0.1-0.2,0-0.3c0,0,0-0.1,0.1-0.2s0.1-0.2,0.2-0.2c0,0,0.1-0.1,0.2-0.2s0.2-0.2,0.2-0.2
		c0.1-0.1,0.4-0.4,0.8-0.9c0.4-0.4,0.7-0.8,0.9-1c0.2-0.2,0.4-0.5,0.8-1c0.3-0.5,0.6-0.9,0.8-1.3s0.4-0.9,0.7-1.5s0.5-1.2,0.7-1.9
		c-2.6-1.5-4.7-3.3-6.2-5.5c-1.5-2.2-2.3-4.5-2.3-7.1c0-2.9,1-5.6,3-8.1s4.7-4.4,8.2-5.9c3.5-1.4,7.2-2.1,11.3-2.1s7.9,0.7,11.3,2.1
		C-13.2,284.7-10.5,286.7-8.5,289.2z M-18.4,286.1c-3-1.2-6.2-1.7-9.6-1.7s-6.6,0.6-9.6,1.7c-3,1.2-5.3,2.7-7.1,4.7
		s-2.6,4.1-2.6,6.4c0,1.9,0.6,3.7,1.8,5.4c1.2,1.7,2.9,3.2,5.1,4.4l2.2,1.3l-0.7,2.4c-0.4,1.5-1,3-1.8,4.3c2.5-1.1,4.9-2.5,6.9-4.3
		l1.1-1l1.4,0.2c1.2,0.1,2.2,0.2,3.3,0.2c3.4,0,6.6-0.6,9.6-1.7c3-1.2,5.3-2.7,7.1-4.7c1.8-2,2.6-4.1,2.6-6.4c0-2.3-0.9-4.4-2.6-6.4
		C-13,288.8-15.4,287.3-18.4,286.1z"/>
</g>
<g>
	<path class="st0" d="M-8.6,317c2.2-0.9,4.6-1.4,7.2-1.4s5,0.5,7.2,1.4c2.2,0.9,3.9,2.1,5.2,3.7c1.3,1.6,1.9,3.3,1.9,5.1
		c0,1.6-0.5,3.1-1.4,4.5s-2.3,2.6-3.9,3.5c0.1,0.4,0.3,0.8,0.4,1.2c0.2,0.4,0.3,0.7,0.4,0.9c0.1,0.2,0.3,0.5,0.5,0.8
		c0.2,0.3,0.4,0.5,0.5,0.6s0.3,0.3,0.5,0.6c0.3,0.3,0.4,0.5,0.5,0.5l0.1,0.1l0.1,0.1c0,0,0,0.1,0.1,0.1c0.1,0.1,0.1,0.1,0.1,0.2
		c0,0,0,0.1,0,0.2s0,0.1,0,0.2l0,0c0,0.2-0.1,0.3-0.3,0.4c-0.2,0.1-0.3,0.2-0.4,0.2H10c-0.7-0.1-1.3-0.2-1.8-0.3
		c-2.8-0.7-5.2-2-7.3-3.8c-0.8,0.1-1.6,0.1-2.3,0.1c-2.6,0-5-0.5-7.2-1.4c-2.2-0.9-3.9-2.1-5.2-3.7c-1.3-1.6-1.9-3.3-1.9-5.1
		c0-1.8,0.6-3.5,1.9-5.1C-12.5,319.1-10.8,317.9-8.6,317z M-12,321.7c-1.1,1.3-1.7,2.6-1.7,4.1s0.6,2.8,1.7,4.1
		c1.1,1.3,2.6,2.2,4.5,3c1.9,0.7,3.9,1.1,6.1,1.1c0.6,0,1.3,0,2.1-0.1l0.9-0.1l0.7,0.6c1.3,1.1,2.8,2.1,4.4,2.7
		c-0.5-0.9-0.9-1.8-1.1-2.7l-0.4-1.5l1.4-0.8c1.4-0.8,2.4-1.7,3.2-2.8c0.8-1.1,1.1-2.2,1.1-3.4c0-1.5-0.6-2.8-1.7-4.1
		c-1.1-1.3-2.6-2.2-4.5-3c-1.9-0.7-3.9-1.1-6.1-1.1s-4.2,0.4-6.1,1.1S-10.9,320.5-12,321.7z"/>
</g>
<g>
	<path class="st0" d="M-4.4,323.6c0.5,0,0.9,0.4,0.9,0.9s-0.4,0.9-0.9,0.9s-0.9-0.3-0.9-0.9C-5.3,324-4.9,323.6-4.4,323.6z
		 M0.8,323.6c0.5,0,0.9,0.4,0.9,0.9s-0.4,0.9-0.9,0.9s-0.9-0.3-0.9-0.9C-0.1,324,0.3,323.6,0.8,323.6z"/>
	<path class="st0" d="M-7,326.2c1.5,1,3.4,1.9,6,1.9s4.5-0.8,6-1.9v1c-1.2,0.9-3.1,1.9-6,1.9s-4.8-1-6-1.9V326.2z"/>
</g>
<g>
	<path class="st0" d="M-34.1,293.4c0.8,0,1.4,0.6,1.4,1.4s-0.6,1.3-1.4,1.3c-0.8,0-1.4-0.5-1.4-1.4
		C-35.5,293.9-34.9,293.4-34.1,293.4z M-26.1,293.4c0.8,0,1.4,0.6,1.4,1.4s-0.6,1.3-1.4,1.3c-0.8,0-1.4-0.5-1.4-1.4
		C-27.5,293.9-26.9,293.4-26.1,293.4z"/>
	<path class="st0" d="M-38,297.4c2.2,1.6,5.2,2.9,9.3,2.9s7-1.2,9.2-2.9v1.5c-1.9,1.5-4.8,3-9.2,3s-7.3-1.5-9.2-3v-1.5H-38z"/>
</g>
<g>
	<path class="st0" d="M-257.6,285.2c0.8,0,1.4,0.6,1.4,1.4c0,0.8-0.6,1.3-1.4,1.3c-0.8,0-1.4-0.5-1.4-1.4
		C-259,285.8-258.4,285.2-257.6,285.2z M-249.6,285.2c0.8,0,1.4,0.6,1.4,1.4c0,0.8-0.6,1.3-1.4,1.3c-0.8,0-1.4-0.5-1.4-1.4
		C-251,285.8-250.4,285.2-249.6,285.2z"/>
	<path class="st0" d="M-261.5,289.2c2.2,1.6,5.2,2.9,9.3,2.9s7-1.2,9.2-2.9v1.5c-1.9,1.5-4.8,3-9.2,3c-4.4,0-7.3-1.5-9.2-3v-1.5
		H-261.5z"/>
</g>
<g>
	<path class="st0" d="M-117.7,287.6c1.8,0,3.1,1.2,3.1,2.9c0,1.7-1.3,2.8-3.1,2.9c-1.7,0-3-1.1-3-2.9
		C-120.7,288.7-119.4,287.6-117.7,287.6z M-100.5,287.6c1.8,0,3.1,1.2,3.1,2.9c0,1.7-1.3,2.8-3.1,2.9c-1.7,0-3-1.1-3-2.9
		C-103.5,288.7-102.2,287.6-100.5,287.6z"/>
	<path class="st0" d="M-126.1,296.1c4.8,3.5,11.2,6.1,20,6.1c8.7,0,15-2.6,19.8-6.1v3.3c-4,3.1-10.2,6.4-19.9,6.4
		c-9.6,0-15.8-3.3-19.9-6.4L-126.1,296.1L-126.1,296.1z"/>
</g>
<g>
	<path class="st0" d="M-194.8,272.1c1.3,0,2.3,0.9,2.3,2.2s-0.9,2.1-2.3,2.1c-1.3,0-2.2-0.8-2.2-2.2
		C-197.1,272.9-196.1,272.1-194.8,272.1z M-182.1,272.1c1.3,0,2.3,0.9,2.3,2.2s-0.9,2.1-2.3,2.1c-1.3,0-2.2-0.8-2.2-2.2
		C-184.4,272.9-183.4,272.1-182.1,272.1z"/>
	<path class="st0" d="M-201,278.4c3.6,2.6,8.2,4.5,14.7,4.5c6.4,0,11.1-1.9,14.6-4.5v2.4c-3,2.3-7.6,4.7-14.7,4.7
		c-7,0-11.6-2.4-14.6-4.7V278.4z"/>
</g>
</svg>
