<?xml version="1.0" encoding="utf-8"?>
<!-- Generator: Adobe Illustrator 19.1.0, SVG Export Plug-In . SVG Version: 6.00 Build 0)  -->
<svg version="1.1" id="Layer_1" xmlns="http://www.w3.org/2000/svg" xmlns:xlink="http://www.w3.org/1999/xlink" x="0px" y="0px"
	 viewBox="0 0 212 41.3" style="enable-background:new 0 0 212 41.3;" xml:space="preserve">
<style type="text/css">
	.st0{fill:#FFFFFF;}
	.st1{opacity:0.4;}
	.st2{fill:none;stroke:#FFFFFF;stroke-width:1.3;stroke-linecap:round;stroke-linejoin:round;stroke-miterlimit:10;}
	.st3{opacity:0.3;fill:#FFFFFF;}
</style>
<g>
	<path class="st0" d="M137,31c-0.2,0-0.4-0.1-0.5-0.2c-0.3-0.2-0.5-0.7-0.3-1.1l1.9-5.9c0.2-0.5,0-0.9-0.4-1.2l-5-3.7
		c-0.3-0.2-0.5-0.6-0.4-1c0.1-0.4,0.5-0.7,0.9-0.7h6.2c0.5,0,0.9-0.3,1.1-0.8l1.9-5.8c0.1-0.4,0.3-0.6,0.7-0.7
		c0.5-0.1,0.9,0.2,1.1,0.6v0l1.9,5.9c0.2,0.5,0.6,0.7,1.1,0.7h6.2c0.4,0,0.7,0.2,0.8,0.6c0.2,0.4,0.1,0.8-0.2,1.1c0,0-0.1,0-0.1,0.1
		l-5.1,3.6c-0.3,0.2-0.5,0.8-0.4,1.3l1.9,5.9c0.1,0.3,0,0.7-0.2,0.9c-0.3,0.3-0.7,0.3-1,0.2c-0.1,0-0.1-0.1-0.2-0.1l-5-3.6
		c-0.4-0.3-0.9-0.3-1.4,0l-5,3.6C137.4,30.9,137.2,31,137,31z M134.3,18.5l4.1,3c0.9,0.6,1.3,1.6,0.9,2.7l-1.6,4.9l4.1-3
		c0.9-0.6,2.1-0.6,2.9,0l4.1,3l-1.6-4.9c-0.3-1,0.1-2.1,0.9-2.7l4.1-3h-5c-1.1,0-2-0.6-2.3-1.6l-1.6-4.8l-1.6,4.8
		c-0.4,1-1.3,1.6-2.3,1.6H134.3z"/>
</g>
<g class="st1">
	<path class="st0" d="M176.3,20.6c-0.8,0-1.5-0.8-1.5-1.6s0.7-1.6,1.5-1.6s1.5,0.8,1.5,1.6S177.2,20.6,176.3,20.6z M176.3,16.4
		c-1.4,0-2.5,1.1-2.5,2.5c0,1.4,1.1,2.5,2.5,2.5s2.5-1.1,2.5-2.5C178.7,17.5,177.6,16.4,176.3,16.4z M185,26.8
		c-0.3,0-0.4,0.2-0.4,0.4v3.6c0,0.3,0.2,0.4,0.4,0.4s0.4-0.2,0.4-0.4v-3.6C185.4,27,185.2,26.8,185,26.8z M185,25.6
		c-0.8,0-1.4-0.7-1.4-1.5c0-0.8,0.7-1.5,1.4-1.5c0.8,0,1.4,0.7,1.4,1.5C186.4,25,185.7,25.6,185,25.6z M185,21.7
		c-1.3,0-2.4,1.1-2.4,2.5c0,1.4,1,2.5,2.4,2.5c1.3,0,2.4-1.1,2.4-2.5C187.4,22.8,186.3,21.7,185,21.7z M193.6,17.7
		c-0.8,0-1.4-0.7-1.4-1.5c0-0.8,0.7-1.5,1.4-1.5c0.8,0,1.4,0.7,1.4,1.5C195.1,17,194.5,17.7,193.6,17.7z M193.6,13.8
		c-1.3,0-2.4,1.1-2.4,2.5s1,2.5,2.4,2.5c1.3,0,2.4-1.1,2.4-2.5S194.9,13.8,193.6,13.8z M193.6,19c-0.3,0-0.4,0.2-0.4,0.4v11.5
		c0,0.3,0.2,0.4,0.4,0.4s0.4-0.2,0.4-0.4V19.4C194.1,19.1,193.9,19,193.6,19z M185,21.3c0.3,0,0.4-0.2,0.4-0.4V10
		c0-0.3-0.2-0.4-0.4-0.4s-0.4,0.2-0.4,0.4v10.8C184.6,21.2,184.7,21.3,185,21.3z M193.6,13.4c0.3,0,0.4-0.2,0.4-0.4V10
		c0-0.3-0.2-0.4-0.4-0.4s-0.4,0.2-0.4,0.4v3C193.2,13.3,193.4,13.4,193.6,13.4z M176.3,16.1c0.3,0,0.4-0.2,0.4-0.4V10
		c0.1-0.3-0.2-0.4-0.4-0.4s-0.4,0.2-0.4,0.4v5.7C175.8,15.9,176.1,16.1,176.3,16.1z M176.3,21.7c-0.3,0-0.4,0.2-0.4,0.4v8.7
		c0,0.3,0.2,0.4,0.4,0.4s0.4-0.2,0.4-0.4v-8.7C176.8,21.9,176.5,21.7,176.3,21.7z"/>
</g>
<g class="st1">
	<g>
		<path class="st2" d="M101.4,11c0,0-5.5,3.3-5.5,10.3c0,7.2,5.4,10.2,5.4,10.2"/>
		<path class="st2" d="M102,11c0,0,5.5,3.3,5.5,10.3c0,7.2-5.4,10.2-5.4,10.2"/>
		<path class="st2" d="M109.5,27.9c-1.7-1.4-4.3-2.8-7.9-2.8c-3.6,0-6.1,1.3-7.8,2.6"/>
		<g>
			<g>
				<path class="st0" d="M101.7,11.4c2.7,0,5.2,1.1,7.1,3c1.8,1.8,2.8,4.3,2.8,6.8c0,5.4-4.4,9.9-9.9,9.9c-5.4,0-9.9-4.4-9.9-9.9
					c0-2.6,1-5,2.8-6.9C96.5,12.5,99,11.4,101.7,11.4 M101.7,10.6c-3,0-5.7,1.3-7.7,3.2c-1.8,1.9-3,4.6-3,7.5
					c0,5.9,4.8,10.8,10.8,10.8c5.9,0,10.8-4.8,10.8-10.8c0-2.9-1.1-5.5-3-7.4C107.4,11.8,104.7,10.6,101.7,10.6L101.7,10.6z"/>
			</g>
		</g>
		<path class="st2" d="M94.4,14.1c1.6,1.3,4.1,2.4,7.3,2.4c3.3,0,5.7-1.1,7.4-2.4"/>
	</g>
	<line class="st2" x1="91.5" y1="21.3" x2="111.7" y2="21.3"/>
	<line class="st2" x1="101.6" y1="11.2" x2="101.6" y2="31.4"/>
</g>
<path class="st3" d="M212,41.3h-2v-2h2V41.3z M206,41.3h-2v-2h2V41.3z M200,41.3h-2v-2h2V41.3z M194,41.3h-2v-2h2V41.3z M188,41.3
	h-2v-2h2V41.3z M182,41.3h-2v-2h2V41.3z M176,41.3h-2v-2h2V41.3z M170,41.3h-2v-2h2V41.3z M164,41.3h-2v-2h2V41.3z M158,41.3h-2v-2
	h2V41.3z M152,41.3h-2v-2h2V41.3z M146,41.3h-2v-2h2V41.3z M140,41.3h-2v-2h2V41.3z M134,41.3h-2v-2h2V41.3z M128,41.3h-2v-2h2V41.3
	z M122,41.3h-2v-2h2V41.3z M116,41.3h-2v-2h2V41.3z M110,41.3h-2v-2h2V41.3z M104,41.3h-2v-2h2V41.3z M98,41.3h-2v-2h2V41.3z
	 M92,41.3h-2v-2h2V41.3z M86,41.3h-2v-2h2V41.3z M80,41.3h-2v-2h2V41.3z M74,41.3h-2v-2h2V41.3z M68,41.3h-2v-2h2V41.3z M62,41.3h-2
	v-2h2V41.3z M56,41.3h-2v-2h2V41.3z M50,41.3h-2v-2h2V41.3z M44,41.3h-2v-2h2V41.3z M38,41.3h-2v-2h2V41.3z M32,41.3h-2v-2h2V41.3z
	 M26,41.3h-2v-2h2V41.3z M20,41.3h-2v-2h2V41.3z M14,41.3h-2v-2h2V41.3z M8,41.3H6v-2h2V41.3z M2,41.3H0v-2h2V41.3z"/>
<path class="st3" d="M212,2h-2V0h2V2z M206,2h-2V0h2V2z M200,2h-2V0h2V2z M194,2h-2V0h2V2z M188,2h-2V0h2V2z M182,2h-2V0h2V2z
	 M176,2h-2V0h2V2z M170,2h-2V0h2V2z M164,2h-2V0h2V2z M158,2h-2V0h2V2z M152,2h-2V0h2V2z M146,2h-2V0h2V2z M140,2h-2V0h2V2z M134,2
	h-2V0h2V2z M128,2h-2V0h2V2z M122,2h-2V0h2V2z M116,2h-2V0h2V2z M110,2h-2V0h2V2z M104,2h-2V0h2V2z M98,2h-2V0h2V2z M92,2h-2V0h2V2z
	 M86,2h-2V0h2V2z M80,2h-2V0h2V2z M74,2h-2V0h2V2z M68,2h-2V0h2V2z M62,2h-2V0h2V2z M56,2h-2V0h2V2z M50,2h-2V0h2V2z M44,2h-2V0h2V2
	z M38,2h-2V0h2V2z M32,2h-2V0h2V2z M26,2h-2V0h2V2z M20,2h-2V0h2V2z M14,2h-2V0h2V2z M8,2H6V0h2V2z M2,2H0V0h2V2z"/>
</svg>
