<?xml version="1.0" encoding="utf-8"?>
<!-- Generator: Adobe Illustrator 19.1.0, SVG Export Plug-In . SVG Version: 6.00 Build 0)  -->
<svg version="1.1" id="Layer_1" xmlns="http://www.w3.org/2000/svg" xmlns:xlink="http://www.w3.org/1999/xlink" x="0px" y="0px"
	 viewBox="0 0 98.6 114.7" style="enable-background:new 0 0 98.6 114.7;" xml:space="preserve">
<style type="text/css">
	.st0{fill:#FFFFFF;}
</style>
<path class="st0" d="M14.7,109.7l-0.3-4c1.2-0.1,2.4-0.2,3.5-0.3l0.4,4C17.1,109.5,15.9,109.6,14.7,109.7z M23.3,108.7l-0.6-4
	c1.3-0.2,2.6-0.4,3.9-0.6l0.7,3.9C26,108.3,24.7,108.5,23.3,108.7z M32.3,107l-0.9-3.9c1.3-0.3,2.6-0.6,3.8-0.9l1,3.9
	C35,106.4,33.7,106.7,32.3,107z M41.2,104.7l-1.2-3.8c1.3-0.4,2.5-0.8,3.7-1.2l1.3,3.8C43.8,103.9,42.5,104.3,41.2,104.7z
	 M49.8,101.8L48.4,98c1.2-0.5,2.4-1,3.6-1.5l1.6,3.7C52.4,100.8,51.1,101.3,49.8,101.8z M58.2,98.1l-1.8-3.6
	c1.2-0.6,2.4-1.2,3.5-1.8l1.9,3.5C60.7,96.9,59.5,97.5,58.2,98.1z M66.3,93.7l-2.1-3.4c1.1-0.7,2.2-1.4,3.3-2.1l2.2,3.3
	C68.7,92.3,67.5,93,66.3,93.7z M73.9,88.5l-2.4-3.2c1.6-1.2,2.6-2.1,2.9-2.4l2.7,2.9C76.7,86.3,75.6,87.3,73.9,88.5z M80.8,82.2
	l-2.9-2.7c0.9-1,1.8-1.9,2.6-2.9l3,2.6C82.6,80.2,81.7,81.2,80.8,82.2z M86.8,75.2l-3.2-2.4c0.8-1,1.6-2.1,2.3-3.1l3.3,2.3
	C88.4,73,87.6,74.1,86.8,75.2z M91.9,67.5l-3.5-2c0.7-1.1,1.3-2.3,1.8-3.4l3.6,1.8C93.3,65.1,92.6,66.3,91.9,67.5z M95.9,59.1
	l-3.8-1.4c0.4-1.2,0.8-2.4,1.2-3.6l3.9,1C96.8,56.5,96.4,57.8,95.9,59.1z M98.2,50l-4-0.6c0.2-1.3,0.3-2.5,0.3-3.8l4,0.2
	C98.6,47.2,98.4,48.6,98.2,50z M94.5,40.9c-0.1-1.2-0.3-2.5-0.5-3.7l3.9-0.8c0.3,1.4,0.5,2.8,0.6,4.2L94.5,40.9z M92.7,32.6
	c-0.4-1.2-0.9-2.4-1.4-3.6l3.7-1.6c0.6,1.3,1.1,2.6,1.5,3.9L92.7,32.6z M89.2,24.8c-0.6-1.1-1.3-2.2-2-3.3l3.3-2.2
	c0.8,1.2,1.5,2.3,2.2,3.5L89.2,24.8z M84.3,17.6c-0.8-1-1.6-2-2.5-2.9l2.9-2.7c0.9,1,1.8,2.1,2.7,3.1L84.3,17.6z M78.4,11.2
	c-0.9-0.9-1.9-1.8-2.9-2.6l2.6-3c1,0.9,2.1,1.8,3.1,2.7L78.4,11.2z M71.6,5.6c-1.9-1.4-3.2-2.2-3.2-2.2L70.5,0
	c0.1,0,1.4,0.8,3.5,2.4L71.6,5.6z"/>
<polygon class="st0" points="15.2,100.5 15.2,114.7 0,107 "/>
</svg>
