<?xml version="1.0" encoding="utf-8"?>
<!-- Generator: Adobe Illustrator 19.1.0, SVG Export Plug-In . SVG Version: 6.00 Build 0)  -->
<svg version="1.1" id="Layer_1" xmlns="http://www.w3.org/2000/svg" xmlns:xlink="http://www.w3.org/1999/xlink" x="0px" y="0px"
	 viewBox="0 0 361.3 124.4" style="enable-background:new 0 0 361.3 124.4;" xml:space="preserve">
<style type="text/css">
	.st0{opacity:0.1;}
	.st1{fill:#FFFFFF;}
</style>
<g class="st0">
	<path class="st1" d="M81.3,57.5c3.9,4.8,5.8,10,5.8,15.6S85.2,84,81.3,88.8s-9.2,8.6-15.9,11.3c-6.7,2.8-14,4.2-21.9,4.2
		c-2.3,0-4.6-0.1-7.1-0.4c-6.4,5.7-13.9,9.6-22.4,11.8c-1.6,0.5-3.4,0.8-5.5,1.1H8.4c-0.5,0-0.9-0.2-1.3-0.5s-0.6-0.8-0.8-1.3v0
		c-0.1-0.1-0.1-0.3,0-0.6c0.1-0.3,0.1-0.4,0.1-0.5c0-0.1,0.1-0.2,0.2-0.5c0.2-0.2,0.3-0.4,0.3-0.4c0,0,0.1-0.2,0.3-0.4
		c0.2-0.2,0.3-0.4,0.4-0.4c0.2-0.3,0.7-0.8,1.5-1.7c0.8-0.9,1.3-1.5,1.7-1.8c0.3-0.4,0.8-1,1.5-1.9c0.7-0.9,1.2-1.7,1.6-2.5
		c0.4-0.7,0.8-1.7,1.3-2.9c0.5-1.2,0.9-2.4,1.3-3.7c-5.1-2.9-9.1-6.5-12-10.7C1.5,82.5,0,78,0,73.1c0-5.6,1.9-10.9,5.8-15.6
		c3.9-4.8,9.2-8.6,15.9-11.3c6.7-2.8,14-4.2,21.9-4.2c7.9,0,15.2,1.4,21.9,4.2C72.2,48.9,77.4,52.7,81.3,57.5z M62.1,51.6
		c-5.8-2.3-11.9-3.4-18.6-3.4c-6.6,0-12.8,1.1-18.6,3.4c-5.8,2.3-10.3,5.3-13.7,9.1c-3.4,3.8-5.1,8-5.1,12.4c0,3.6,1.2,7.1,3.5,10.4
		c2.3,3.3,5.6,6.1,9.8,8.5l4.2,2.4l-1.3,4.7c-0.8,3-1.9,5.7-3.4,8.4c4.9-2,9.4-4.8,13.4-8.3l2.1-1.8l2.8,0.3
		c2.2,0.3,4.3,0.4,6.3,0.4c6.6,0,12.8-1.1,18.6-3.4c5.8-2.3,10.3-5.3,13.7-9.1c3.4-3.8,5.1-8,5.1-12.4c0-4.4-1.7-8.6-5.1-12.4
		C72.5,56.9,67.9,53.9,62.1,51.6z"/>
</g>
<g class="st0">
	<path class="st1" d="M215.9,81.9c2.4,3,3.6,6.2,3.6,9.7c0,3.5-1.2,6.7-3.6,9.7c-2.4,3-5.7,5.3-9.8,7s-8.7,2.6-13.6,2.6
		c-1.4,0-2.9-0.1-4.4-0.2c-4,3.5-8.6,6-13.9,7.3c-1,0.3-2.1,0.5-3.4,0.7h-0.2c-0.3,0-0.6-0.1-0.8-0.3c-0.2-0.2-0.4-0.5-0.5-0.8v0
		c-0.1-0.1-0.1-0.2,0-0.4s0.1-0.3,0.1-0.3c0,0,0-0.1,0.1-0.3c0.1-0.2,0.2-0.2,0.2-0.3s0.1-0.1,0.2-0.3c0.1-0.1,0.2-0.2,0.2-0.3
		c0.1-0.2,0.5-0.5,0.9-1s0.8-0.9,1-1.1c0.2-0.2,0.5-0.6,0.9-1.2c0.4-0.6,0.7-1.1,1-1.5s0.5-1.1,0.8-1.8c0.3-0.7,0.6-1.5,0.8-2.3
		c-3.2-1.8-5.7-4-7.5-6.6c-1.8-2.6-2.7-5.5-2.7-8.5c0-3.5,1.2-6.7,3.6-9.7c2.4-3,5.7-5.3,9.8-7c4.1-1.7,8.7-2.6,13.6-2.6
		s9.4,0.9,13.6,2.6C210.2,76.6,213.5,79,215.9,81.9z M204,78.3c-3.6-1.4-7.4-2.1-11.5-2.1s-8,0.7-11.5,2.1c-3.6,1.4-6.4,3.3-8.5,5.7
		c-2.1,2.4-3.2,4.9-3.2,7.7c0,2.3,0.7,4.4,2.2,6.5c1.4,2,3.5,3.8,6.1,5.3l2.6,1.5l-0.8,2.9c-0.5,1.8-1.2,3.6-2.1,5.2
		c3.1-1.3,5.8-3,8.3-5.2l1.3-1.1l1.7,0.2c1.4,0.2,2.7,0.2,3.9,0.2c4.1,0,7.9-0.7,11.5-2.1c3.6-1.4,6.4-3.3,8.5-5.7
		c2.1-2.4,3.2-4.9,3.2-7.7c0-2.8-1.1-5.3-3.2-7.7C210.4,81.6,207.5,79.7,204,78.3z"/>
</g>
<g class="st0">
	<path class="st1" d="M172.3,80.4c2.1,2.6,3.1,5.3,3.1,8.4c0,3-1,5.8-3.1,8.4c-2.1,2.6-4.9,4.6-8.5,6.1c-3.6,1.5-7.5,2.2-11.7,2.2
		c-1.2,0-2.5-0.1-3.8-0.2c-3.4,3-7.4,5.1-11.9,6.3c-0.8,0.2-1.8,0.4-3,0.6h-0.1c-0.3,0-0.5-0.1-0.7-0.3c-0.2-0.2-0.3-0.4-0.4-0.7v0
		c-0.1-0.1-0.1-0.2,0-0.3c0-0.1,0.1-0.2,0.1-0.3c0,0,0-0.1,0.1-0.2c0.1-0.1,0.1-0.2,0.2-0.2c0,0,0.1-0.1,0.2-0.2
		c0.1-0.1,0.2-0.2,0.2-0.2c0.1-0.1,0.4-0.4,0.8-0.9c0.4-0.5,0.7-0.8,0.9-1c0.2-0.2,0.5-0.5,0.8-1c0.4-0.5,0.6-0.9,0.8-1.3
		c0.2-0.4,0.4-0.9,0.7-1.5c0.3-0.6,0.5-1.3,0.7-2c-2.7-1.5-4.9-3.4-6.4-5.7s-2.4-4.7-2.4-7.3c0-3,1-5.8,3.1-8.4
		c2.1-2.6,4.9-4.6,8.5-6.1s7.5-2.2,11.7-2.2s8.1,0.7,11.7,2.2C167.4,75.8,170.2,77.8,172.3,80.4z M162,77.2
		c-3.1-1.2-6.4-1.8-9.9-1.8c-3.5,0-6.8,0.6-9.9,1.8c-3.1,1.2-5.5,2.8-7.3,4.9c-1.8,2-2.7,4.3-2.7,6.6c0,1.9,0.6,3.8,1.9,5.5
		c1.2,1.8,3,3.3,5.2,4.6l2.3,1.3l-0.7,2.5c-0.4,1.6-1,3.1-1.8,4.5c2.6-1.1,5-2.6,7.1-4.4l1.1-1l1.5,0.2c1.2,0.1,2.3,0.2,3.4,0.2
		c3.5,0,6.8-0.6,9.9-1.8c3.1-1.2,5.5-2.8,7.3-4.9c1.8-2,2.7-4.3,2.7-6.6c0-2.4-0.9-4.6-2.7-6.6S165.1,78.4,162,77.2z"/>
</g>
<g class="st0">
	<path class="st1" d="M89,86.7c3.6-1.5,7.5-2.2,11.7-2.2s8.1,0.7,11.7,2.2c3.6,1.5,6.4,3.5,8.5,6.1c2.1,2.6,3.1,5.3,3.1,8.4
		c0,2.6-0.8,5-2.4,7.3s-3.7,4.2-6.4,5.7c0.2,0.7,0.4,1.4,0.7,2c0.3,0.6,0.5,1.1,0.7,1.5c0.2,0.4,0.5,0.8,0.8,1.3
		c0.4,0.5,0.6,0.8,0.8,1c0.2,0.2,0.5,0.5,0.9,1c0.4,0.5,0.7,0.8,0.8,0.9c0,0,0.1,0.1,0.2,0.2c0.1,0.1,0.2,0.2,0.2,0.2
		c0,0,0.1,0.1,0.2,0.2c0.1,0.1,0.1,0.2,0.1,0.2c0,0,0,0.1,0.1,0.3c0,0.1,0,0.2,0,0.3v0c-0.1,0.3-0.2,0.5-0.4,0.7
		c-0.2,0.2-0.4,0.3-0.7,0.3h-0.1c-1.1-0.1-2.1-0.3-3-0.6c-4.5-1.2-8.5-3.3-11.9-6.3c-1.3,0.1-2.6,0.2-3.8,0.2
		c-4.2,0-8.1-0.7-11.7-2.2c-3.6-1.5-6.4-3.5-8.5-6.1c-2.1-2.6-3.1-5.3-3.1-8.4c0-3,1-5.8,3.1-8.4C82.6,90.2,85.5,88.2,89,86.7z
		 M83.5,94.5c-1.8,2-2.7,4.3-2.7,6.6c0,2.4,0.9,4.6,2.7,6.6c1.8,2,4.3,3.7,7.3,4.9c3.1,1.2,6.4,1.8,9.9,1.8c1.1,0,2.2-0.1,3.4-0.2
		l1.5-0.2l1.1,1c2.1,1.9,4.5,3.4,7.1,4.4c-0.8-1.4-1.4-2.9-1.8-4.5l-0.7-2.5l2.3-1.3c2.3-1.3,4-2.8,5.2-4.6c1.2-1.8,1.9-3.6,1.9-5.5
		c0-2.4-0.9-4.6-2.7-6.6c-1.8-2-4.3-3.7-7.3-4.9c-3.1-1.2-6.4-1.8-9.9-1.8c-3.5,0-6.8,0.6-9.9,1.8C87.7,90.8,85.3,92.5,83.5,94.5z"
		/>
</g>
<g class="st0">
	<g>
		<path class="st1" d="M327.9,46.5c-10.3,0-18.7-8.4-18.7-18.7s8.4-18.7,18.7-18.7c10.3,0,18.7,8.4,18.7,18.7S338.2,46.5,327.9,46.5
			z M327.9,13.2c-8,0-14.5,6.5-14.5,14.5s6.5,14.5,14.5,14.5c8,0,14.5-6.5,14.5-14.5S335.9,13.2,327.9,13.2z"/>
		<path class="st1" d="M359.2,83.9c-1.1,0-2.1-0.9-2.1-2.1c0-16.1-13.1-29.3-29.3-29.3c-16.1,0-29.3,13.1-29.3,29.3
			c0,1.1-0.9,2.1-2.1,2.1s-2.1-0.9-2.1-2.1c0-18.4,15-33.4,33.4-33.4c18.4,0,33.4,15,33.4,33.4C361.3,83,360.4,83.9,359.2,83.9z"/>
	</g>
</g>
<g class="st0">
	<g>
		<path class="st1" d="M268.4,29.2c-8,0-14.6-6.5-14.6-14.6S260.4,0,268.4,0c8,0,14.6,6.5,14.6,14.6S276.5,29.2,268.4,29.2z
			 M268.4,3.2c-6.3,0-11.3,5.1-11.3,11.3s5.1,11.3,11.3,11.3s11.3-5.1,11.3-11.3S274.7,3.2,268.4,3.2z"/>
		<path class="st1" d="M292.9,58.3c-0.9,0-1.6-0.7-1.6-1.6c0-12.6-10.2-22.8-22.8-22.8c-12.6,0-22.8,10.2-22.8,22.8
			c0,0.9-0.7,1.6-1.6,1.6c-0.9,0-1.6-0.7-1.6-1.6c0-14.4,11.7-26.1,26.1-26.1c14.4,0,26.1,11.7,26.1,26.1
			C294.5,57.6,293.8,58.3,292.9,58.3z"/>
	</g>
</g>
<g class="st0">
	<g>
		<path class="st1" d="M223.7,35.2c-8,0-14.6-6.5-14.6-14.6s6.5-14.6,14.6-14.6s14.6,6.5,14.6,14.6S231.7,35.2,223.7,35.2z
			 M223.7,9.3c-6.3,0-11.3,5.1-11.3,11.3S217.4,32,223.7,32S235,26.9,235,20.7S229.9,9.3,223.7,9.3z"/>
		<path class="st1" d="M248.1,64.4c-0.9,0-1.6-0.7-1.6-1.6c0-12.6-10.2-22.8-22.8-22.8c-12.6,0-22.8,10.2-22.8,22.8
			c0,0.9-0.7,1.6-1.6,1.6s-1.6-0.7-1.6-1.6c0-14.4,11.7-26.1,26.1-26.1c14.4,0,26.1,11.7,26.1,26.1C249.8,63.7,249,64.4,248.1,64.4z
			"/>
	</g>
</g>
<g class="st0">
	<g>
		<path class="st1" d="M185.3,40.3c-4.8,0-8.8-3.9-8.8-8.8s3.9-8.8,8.8-8.8c4.8,0,8.8,3.9,8.8,8.8S190.1,40.3,185.3,40.3z
			 M185.3,24.7c-3.8,0-6.8,3.1-6.8,6.8s3.1,6.8,6.8,6.8s6.8-3.1,6.8-6.8S189,24.7,185.3,24.7z"/>
		<path class="st1" d="M200,57.8c-0.5,0-1-0.4-1-1c0-7.6-6.2-13.7-13.7-13.7c-7.6,0-13.7,6.2-13.7,13.7c0,0.5-0.4,1-1,1
			c-0.5,0-1-0.4-1-1c0-8.7,7-15.7,15.7-15.7c8.7,0,15.7,7,15.7,15.7C201,57.4,200.5,57.8,200,57.8z"/>
	</g>
</g>
</svg>
