<?xml version="1.0" encoding="utf-8"?>
<!-- Generator: Adobe Illustrator 19.1.0, SVG Export Plug-In . SVG Version: 6.00 Build 0)  -->
<svg version="1.1" id="Layer_1" xmlns="http://www.w3.org/2000/svg" xmlns:xlink="http://www.w3.org/1999/xlink" x="0px" y="0px"
	 viewBox="0 0 288.8 86.8" style="enable-background:new 0 0 288.8 86.8;" xml:space="preserve">
<style type="text/css">
	.st0{opacity:9.000000e-02;}
	.st1{fill:#FFFFFF;}
	.st2{opacity:0.25;}
</style>
<g class="st0">
	<path class="st1" d="M207.9,26.5c4,4.9,6,10.2,6,15.9s-2,11.1-6,15.9c-4,4.9-9.4,8.7-16.2,11.6c-6.8,2.8-14.2,4.2-22.3,4.2
		c-2.3,0-4.7-0.1-7.2-0.4c-6.5,5.8-14.1,9.8-22.8,12c-1.6,0.5-3.5,0.8-5.7,1.1h-0.2c-0.5,0-0.9-0.2-1.3-0.5
		c-0.4-0.3-0.7-0.8-0.8-1.4v0c-0.1-0.1-0.1-0.3,0-0.6c0.1-0.3,0.1-0.4,0.1-0.5c0-0.1,0.1-0.2,0.2-0.5c0.2-0.2,0.3-0.4,0.3-0.4
		c0,0,0.1-0.2,0.3-0.4c0.2-0.2,0.3-0.4,0.4-0.4c0.2-0.3,0.7-0.8,1.5-1.7c0.8-0.9,1.4-1.5,1.7-1.9c0.3-0.4,0.9-1,1.5-2
		c0.7-0.9,1.2-1.8,1.6-2.5c0.4-0.8,0.8-1.7,1.3-2.9c0.5-1.2,0.9-2.4,1.3-3.8c-5.2-2.9-9.3-6.6-12.3-10.9c-3-4.3-4.5-9-4.5-13.9
		c0-5.8,2-11.1,6-15.9c4-4.9,9.4-8.7,16.2-11.6c6.8-2.8,14.2-4.2,22.3-4.2c8.1,0,15.5,1.4,22.3,4.2
		C198.5,17.7,203.9,21.6,207.9,26.5z M188.3,20.5c-5.9-2.3-12.2-3.4-18.9-3.4s-13.1,1.1-18.9,3.4c-5.9,2.3-10.5,5.4-14,9.3
		c-3.5,3.9-5.2,8.1-5.2,12.6c0,3.7,1.2,7.2,3.5,10.6c2.4,3.4,5.7,6.3,10,8.7l4.3,2.5l-1.3,4.8c-0.8,3-2,5.9-3.5,8.5
		c5-2.1,9.6-4.9,13.6-8.5l2.1-1.9l2.8,0.3c2.3,0.3,4.4,0.4,6.4,0.4c6.7,0,13-1.1,18.9-3.4c5.9-2.3,10.5-5.4,14-9.3
		c3.5-3.9,5.2-8.1,5.2-12.6c0-4.5-1.7-8.7-5.2-12.6C198.8,25.9,194.2,22.8,188.3,20.5z"/>
</g>
<g class="st0">
	<path class="st1" d="M117.3,12.1c3,3.7,4.6,7.8,4.6,12.2s-1.5,8.5-4.6,12.2c-3,3.7-7.2,6.7-12.4,8.8c-5.2,2.2-10.9,3.2-17.1,3.2
		c-1.8,0-3.6-0.1-5.5-0.3c-5,4.4-10.8,7.5-17.4,9.2c-1.2,0.4-2.7,0.6-4.3,0.8h-0.2c-0.4,0-0.7-0.1-1-0.4c-0.3-0.3-0.5-0.6-0.6-1v0
		c-0.1-0.1-0.1-0.3,0-0.5c0.1-0.2,0.1-0.3,0.1-0.4c0-0.1,0-0.2,0.2-0.4c0.1-0.2,0.2-0.3,0.2-0.3c0,0,0.1-0.1,0.3-0.3
		c0.2-0.2,0.3-0.3,0.3-0.3c0.2-0.2,0.6-0.6,1.2-1.3c0.6-0.7,1-1.2,1.3-1.4c0.3-0.3,0.7-0.8,1.2-1.5c0.5-0.7,0.9-1.4,1.2-1.9
		c0.3-0.6,0.6-1.3,1-2.2c0.4-0.9,0.7-1.9,1-2.9c-4-2.2-7.1-5-9.4-8.3c-2.3-3.3-3.4-6.9-3.4-10.7c0-4.4,1.5-8.5,4.6-12.2
		c3-3.7,7.2-6.7,12.4-8.8C76,1.1,81.7,0,87.8,0c6.2,0,11.9,1.1,17.1,3.2C110.1,5.4,114.2,8.3,117.3,12.1z M102.3,7.5
		C97.8,5.7,93,4.9,87.8,4.9s-10,0.9-14.5,2.6c-4.5,1.8-8.1,4.1-10.7,7.1c-2.6,3-4,6.2-4,9.7c0,2.8,0.9,5.5,2.7,8.1
		c1.8,2.6,4.4,4.8,7.6,6.7l3.3,1.9l-1,3.6c-0.6,2.3-1.5,4.5-2.7,6.5c3.8-1.6,7.3-3.8,10.4-6.5l1.6-1.4l2.2,0.2
		c1.7,0.2,3.4,0.3,4.9,0.3c5.2,0,10-0.9,14.5-2.6c4.5-1.8,8.1-4.1,10.7-7.1c2.6-3,4-6.2,4-9.7c0-3.5-1.3-6.7-4-9.7
		C110.4,11.6,106.8,9.2,102.3,7.5z"/>
</g>
<g class="st0">
	<path class="st1" d="M42,26.7c2,2.5,3,5.2,3,8.1c0,2.9-1,5.6-3,8.1c-2,2.5-4.7,4.4-8.2,5.9c-3.5,1.4-7.2,2.1-11.3,2.1
		c-1.2,0-2.4-0.1-3.6-0.2c-3.3,2.9-7.2,5-11.6,6.1c-0.8,0.2-1.8,0.4-2.9,0.6H4.3c-0.3,0-0.5-0.1-0.7-0.3c-0.2-0.2-0.3-0.4-0.4-0.7v0
		c-0.1-0.1-0.1-0.2,0-0.3c0-0.1,0.1-0.2,0.1-0.3c0,0,0-0.1,0.1-0.2c0.1-0.1,0.1-0.2,0.2-0.2c0,0,0.1-0.1,0.2-0.2s0.2-0.2,0.2-0.2
		c0.1-0.1,0.4-0.4,0.8-0.9c0.4-0.4,0.7-0.8,0.9-1c0.2-0.2,0.4-0.5,0.8-1c0.3-0.5,0.6-0.9,0.8-1.3c0.2-0.4,0.4-0.9,0.7-1.5
		c0.3-0.6,0.5-1.2,0.7-1.9c-2.6-1.5-4.7-3.3-6.2-5.5C0.8,39.6,0,37.2,0,34.7c0-2.9,1-5.6,3-8.1c2-2.5,4.7-4.4,8.2-5.9
		c3.5-1.4,7.2-2.1,11.3-2.1s7.9,0.7,11.3,2.1C37.3,22.2,40,24.2,42,26.7z M32.1,23.6c-3-1.2-6.2-1.7-9.6-1.7s-6.6,0.6-9.6,1.7
		c-3,1.2-5.3,2.7-7.1,4.7c-1.8,2-2.6,4.1-2.6,6.4c0,1.9,0.6,3.7,1.8,5.4c1.2,1.7,2.9,3.2,5.1,4.4l2.2,1.3l-0.7,2.4
		c-0.4,1.5-1,3-1.8,4.3c2.5-1.1,4.9-2.5,6.9-4.3l1.1-1l1.4,0.2c1.2,0.1,2.2,0.2,3.3,0.2c3.4,0,6.6-0.6,9.6-1.7
		c3-1.2,5.3-2.7,7.1-4.7c1.8-2,2.6-4.1,2.6-6.4c0-2.3-0.9-4.4-2.6-6.4C37.4,26.3,35.1,24.8,32.1,23.6z"/>
</g>
<g class="st0">
	<path class="st1" d="M267.5,34.7c2,2.5,3,5.2,3,8.1c0,2.9-1,5.6-3,8.1c-2,2.5-4.7,4.4-8.2,5.9c-3.5,1.4-7.2,2.1-11.3,2.1
		c-1.2,0-2.4-0.1-3.6-0.2c-3.3,2.9-7.2,5-11.6,6.1c-0.8,0.2-1.8,0.4-2.9,0.6h-0.1c-0.3,0-0.5-0.1-0.7-0.3c-0.2-0.2-0.3-0.4-0.4-0.7
		v0c-0.1-0.1-0.1-0.2,0-0.3c0-0.1,0.1-0.2,0-0.3c0,0,0-0.1,0.1-0.2s0.1-0.2,0.2-0.2c0,0,0.1-0.1,0.2-0.2s0.2-0.2,0.2-0.2
		c0.1-0.1,0.4-0.4,0.8-0.9c0.4-0.4,0.7-0.8,0.9-1c0.2-0.2,0.4-0.5,0.8-1c0.3-0.5,0.6-0.9,0.8-1.3c0.2-0.4,0.4-0.9,0.7-1.5
		c0.3-0.6,0.5-1.2,0.7-1.9c-2.6-1.5-4.7-3.3-6.2-5.5c-1.5-2.2-2.3-4.5-2.3-7.1c0-2.9,1-5.6,3-8.1c2-2.5,4.7-4.4,8.2-5.9
		c3.5-1.4,7.2-2.1,11.3-2.1c4.1,0,7.9,0.7,11.3,2.1C262.8,30.2,265.5,32.2,267.5,34.7z M257.6,31.6c-3-1.2-6.2-1.7-9.6-1.7
		s-6.6,0.6-9.6,1.7c-3,1.2-5.3,2.7-7.1,4.7c-1.8,2-2.6,4.1-2.6,6.4c0,1.9,0.6,3.7,1.8,5.4c1.2,1.7,2.9,3.2,5.1,4.4l2.2,1.3l-0.7,2.4
		c-0.4,1.5-1,3-1.8,4.3c2.5-1.1,4.9-2.5,6.9-4.3l1.1-1l1.4,0.2c1.2,0.1,2.2,0.2,3.3,0.2c3.4,0,6.6-0.6,9.6-1.7
		c3-1.2,5.3-2.7,7.1-4.7c1.8-2,2.6-4.1,2.6-6.4c0-2.3-0.9-4.4-2.6-6.4C263,34.3,260.6,32.8,257.6,31.6z"/>
</g>
<g class="st0">
	<path class="st1" d="M267.4,62.5c2.2-0.9,4.6-1.4,7.2-1.4c2.6,0,5,0.5,7.2,1.4c2.2,0.9,3.9,2.1,5.2,3.7c1.3,1.6,1.9,3.3,1.9,5.1
		c0,1.6-0.5,3.1-1.4,4.5s-2.3,2.6-3.9,3.5c0.1,0.4,0.3,0.8,0.4,1.2c0.2,0.4,0.3,0.7,0.4,0.9s0.3,0.5,0.5,0.8
		c0.2,0.3,0.4,0.5,0.5,0.6c0.1,0.1,0.3,0.3,0.5,0.6c0.3,0.3,0.4,0.5,0.5,0.5c0,0,0.1,0.1,0.1,0.1s0.1,0.1,0.1,0.1s0,0.1,0.1,0.1
		c0.1,0.1,0.1,0.1,0.1,0.2c0,0,0,0.1,0,0.2c0,0.1,0,0.1,0,0.2v0c0,0.2-0.1,0.3-0.3,0.4s-0.3,0.2-0.4,0.2H286
		c-0.7-0.1-1.3-0.2-1.8-0.3c-2.8-0.7-5.2-2-7.3-3.8c-0.8,0.1-1.6,0.1-2.3,0.1c-2.6,0-5-0.5-7.2-1.4c-2.2-0.9-3.9-2.1-5.2-3.7
		c-1.3-1.6-1.9-3.3-1.9-5.1c0-1.8,0.6-3.5,1.9-5.1C263.5,64.6,265.2,63.4,267.4,62.5z M264,67.2c-1.1,1.3-1.7,2.6-1.7,4.1
		c0,1.5,0.6,2.8,1.7,4.1c1.1,1.3,2.6,2.2,4.5,3c1.9,0.7,3.9,1.1,6.1,1.1c0.6,0,1.3,0,2.1-0.1l0.9-0.1l0.7,0.6
		c1.3,1.1,2.8,2.1,4.4,2.7c-0.5-0.9-0.9-1.8-1.1-2.7l-0.4-1.5l1.4-0.8c1.4-0.8,2.4-1.7,3.2-2.8c0.8-1.1,1.1-2.2,1.1-3.4
		c0-1.5-0.6-2.8-1.7-4.1c-1.1-1.3-2.6-2.2-4.5-3c-1.9-0.7-3.9-1.1-6.1-1.1c-2.2,0-4.2,0.4-6.1,1.1C266.6,65,265.1,66,264,67.2z"/>
</g>
<g class="st2">
	<path class="st1" d="M271.6,69.1c0.5,0,0.9,0.4,0.9,0.9c0,0.5-0.4,0.9-0.9,0.9c-0.5,0-0.9-0.3-0.9-0.9
		C270.7,69.5,271.1,69.1,271.6,69.1z M276.8,69.1c0.5,0,0.9,0.4,0.9,0.9c0,0.5-0.4,0.9-0.9,0.9c-0.5,0-0.9-0.3-0.9-0.9
		C275.9,69.5,276.3,69.1,276.8,69.1z"/>
	<path class="st1" d="M269,71.7c1.5,1,3.4,1.9,6,1.9c2.6,0,4.5-0.8,6-1.9v1c-1.2,0.9-3.1,1.9-6,1.9c-2.9,0-4.8-1-6-1.9V71.7z"/>
</g>
<g class="st2">
	<path class="st1" d="M241.9,38.9c0.8,0,1.4,0.6,1.4,1.4c0,0.8-0.6,1.3-1.4,1.3c-0.8,0-1.4-0.5-1.4-1.4
		C240.5,39.4,241.1,38.9,241.9,38.9z M249.9,38.9c0.8,0,1.4,0.6,1.4,1.4c0,0.8-0.6,1.3-1.4,1.3c-0.8,0-1.4-0.5-1.4-1.4
		C248.5,39.4,249.1,38.9,249.9,38.9z"/>
	<path class="st1" d="M238,42.9c2.2,1.6,5.2,2.9,9.3,2.9c4.1,0,7-1.2,9.2-2.9v1.5c-1.9,1.5-4.8,3-9.2,3c-4.4,0-7.3-1.5-9.2-3V42.9z"
		/>
</g>
<g class="st2">
	<path class="st1" d="M18.4,30.7c0.8,0,1.4,0.6,1.4,1.4c0,0.8-0.6,1.3-1.4,1.3c-0.8,0-1.4-0.5-1.4-1.4C17,31.3,17.6,30.7,18.4,30.7z
		 M26.4,30.7c0.8,0,1.4,0.6,1.4,1.4c0,0.8-0.6,1.3-1.4,1.3c-0.8,0-1.4-0.5-1.4-1.4C25,31.3,25.6,30.7,26.4,30.7z"/>
	<path class="st1" d="M14.5,34.7c2.2,1.6,5.2,2.9,9.3,2.9c4.1,0,7-1.2,9.2-2.9v1.5c-1.9,1.5-4.8,3-9.2,3c-4.4,0-7.3-1.5-9.2-3V34.7z
		"/>
</g>
<g class="st2">
	<path class="st1" d="M158.3,33.1c1.8,0,3.1,1.2,3.1,2.9c0,1.7-1.3,2.8-3.1,2.9c-1.7,0-3-1.1-3-2.9
		C155.3,34.2,156.6,33.1,158.3,33.1z M175.5,33.1c1.8,0,3.1,1.2,3.1,2.9c0,1.7-1.3,2.8-3.1,2.9c-1.7,0-3-1.1-3-2.9
		C172.5,34.2,173.8,33.1,175.5,33.1z"/>
	<path class="st1" d="M149.9,41.6c4.8,3.5,11.2,6.1,20,6.1c8.7,0,15-2.6,19.8-6.1v3.3c-4,3.1-10.2,6.4-19.9,6.4
		c-9.6,0-15.8-3.3-19.9-6.4V41.6z"/>
</g>
<g class="st2">
	<path class="st1" d="M81.2,17.6c1.3,0,2.3,0.9,2.3,2.2c0,1.3-0.9,2.1-2.3,2.1c-1.3,0-2.2-0.8-2.2-2.2
		C78.9,18.4,79.9,17.6,81.2,17.6z M93.9,17.6c1.3,0,2.3,0.9,2.3,2.2c0,1.3-0.9,2.1-2.3,2.1c-1.3,0-2.2-0.8-2.2-2.2
		C91.6,18.4,92.6,17.6,93.9,17.6z"/>
	<path class="st1" d="M75,23.9c3.6,2.6,8.2,4.5,14.7,4.5c6.4,0,11.1-1.9,14.6-4.5v2.4c-3,2.3-7.6,4.7-14.7,4.7
		C82.6,31,78,28.6,75,26.3V23.9z"/>
</g>
</svg>
