<?xml version="1.0" encoding="utf-8"?>
<!-- Generator: Adobe Illustrator 19.1.0, SVG Export Plug-In . SVG Version: 6.00 Build 0)  -->
<svg version="1.1" id="Layer_1" xmlns="http://www.w3.org/2000/svg" xmlns:xlink="http://www.w3.org/1999/xlink" x="0px" y="0px"
	 viewBox="0 0 212 81.3" style="enable-background:new 0 0 212 81.3;" xml:space="preserve">
<style type="text/css">
	.st0{fill:#FFFFFF;}
	.st1{opacity:0.4;}
	.st2{opacity:0.3;fill:#FFFFFF;}
</style>
<polygon class="st0" points="124.9,18.8 114.8,24.3 125.2,28.1 "/>
<path class="st0" d="M178.3,61.9h-2c0-0.6,0-1.3-0.1-1.9l2-0.2C178.3,60.5,178.3,61.2,178.3,61.9z M175.6,56.2
	c-0.2-0.6-0.3-1.2-0.5-1.8l1.9-0.6c0.2,0.7,0.4,1.3,0.6,2L175.6,56.2z M173.6,50.8c-0.3-0.6-0.6-1.1-1-1.7l1.7-1.1
	c0.4,0.6,0.7,1.2,1,1.8L173.6,50.8z M170.4,46c-0.4-0.5-0.8-1-1.3-1.5l1.5-1.4c0.5,0.5,0.9,1,1.4,1.5L170.4,46z M166.3,41.9
	c-0.5-0.4-1-0.8-1.5-1.3L166,39c0.5,0.4,1.1,0.9,1.6,1.3L166.3,41.9z M161.6,38.3c-0.5-0.4-1.1-0.7-1.6-1.1l1.1-1.7
	c0.6,0.4,1.1,0.7,1.7,1.1L161.6,38.3z M156.6,35.2c-0.6-0.3-1.2-0.6-1.7-0.9l0.9-1.8c0.6,0.3,1.2,0.6,1.8,1L156.6,35.2z M151.3,32.6
	c-0.6-0.3-1.2-0.5-1.8-0.8l0.8-1.8c0.6,0.3,1.2,0.5,1.9,0.8L151.3,32.6z M145.8,30.3c-0.6-0.2-1.2-0.5-1.9-0.7l0.7-1.9
	c0.6,0.2,1.3,0.5,1.9,0.7L145.8,30.3z M140.2,28.3c-0.6-0.2-1.3-0.4-1.9-0.6l0.6-1.9c0.6,0.2,1.3,0.4,1.9,0.6L140.2,28.3z
	 M134.4,26.6c-0.7-0.2-1.3-0.3-1.9-0.5l0.5-1.9c0.6,0.2,1.3,0.3,2,0.5L134.4,26.6z M128.6,25.2c-0.8-0.2-1.4-0.3-2-0.4l0.4-2
	c0.6,0.1,1.2,0.2,2,0.4L128.6,25.2z"/>
<g class="st1">
	<path class="st0" d="M23,30.3c-0.2,0-0.4-0.1-0.5-0.2c-0.3-0.2-0.5-0.7-0.3-1.1l1.9-5.9c0.2-0.5,0-0.9-0.4-1.2l-5-3.7
		c-0.3-0.2-0.5-0.6-0.4-1c0.1-0.4,0.5-0.7,0.9-0.7h6.2c0.5,0,0.9-0.3,1.1-0.8l1.9-5.8c0.1-0.4,0.3-0.6,0.7-0.7
		c0.5-0.1,0.9,0.2,1.1,0.6v0l1.9,5.9c0.2,0.5,0.6,0.7,1.1,0.7h6.2c0.4,0,0.7,0.2,0.8,0.6c0.2,0.4,0.1,0.8-0.2,1.1c0,0-0.1,0-0.1,0.1
		l-5.1,3.6c-0.3,0.2-0.5,0.8-0.4,1.3l1.9,5.9c0.1,0.3,0,0.7-0.2,0.9c-0.3,0.3-0.7,0.3-1,0.2c-0.1,0-0.1-0.1-0.2-0.1l-5-3.6
		c-0.4-0.3-0.9-0.3-1.4,0l-5,3.6C23.4,30.2,23.2,30.3,23,30.3z M20.3,17.8l4.1,3c0.9,0.6,1.3,1.6,0.9,2.7l-1.6,4.9l4.1-3
		c0.9-0.6,2.1-0.6,2.9,0l4.1,3l-1.6-4.9c-0.3-1,0.1-2.1,0.9-2.7l4.1-3h-5c-1.1,0-2-0.6-2.3-1.6l-1.6-4.8l-1.6,4.8
		c-0.4,1-1.3,1.6-2.3,1.6H20.3z"/>
</g>
<g class="st1">
	<path class="st0" d="M23,70.8c-0.2,0-0.4-0.1-0.5-0.2c-0.3-0.2-0.5-0.7-0.3-1.1l1.9-5.9c0.2-0.5,0-0.9-0.4-1.2l-5-3.7
		c-0.3-0.2-0.5-0.6-0.4-1c0.1-0.4,0.5-0.7,0.9-0.7h6.2c0.5,0,0.9-0.3,1.1-0.8l1.9-5.8c0.1-0.4,0.3-0.6,0.7-0.7
		c0.5-0.1,0.9,0.2,1.1,0.6v0l1.9,5.9c0.2,0.5,0.6,0.7,1.1,0.7h6.2c0.4,0,0.7,0.2,0.8,0.6c0.2,0.4,0.1,0.8-0.2,1.1c0,0-0.1,0-0.1,0.1
		l-5.1,3.6c-0.3,0.2-0.5,0.8-0.4,1.3l1.9,5.9c0.1,0.3,0,0.7-0.2,0.9c-0.3,0.3-0.7,0.3-1,0.2c-0.1,0-0.1-0.1-0.2-0.1l-5-3.6
		c-0.4-0.3-0.9-0.3-1.4,0l-5,3.6C23.4,70.7,23.2,70.8,23,70.8z M20.3,58.3l4.1,3c0.9,0.6,1.3,1.6,0.9,2.7l-1.6,4.9l4.1-3
		c0.9-0.6,2.1-0.6,2.9,0l4.1,3L33.1,64c-0.3-1,0.1-2.1,0.9-2.7l4.1-3h-5c-1.1,0-2-0.6-2.3-1.6l-1.6-4.8l-1.6,4.8
		c-0.4,1-1.3,1.6-2.3,1.6H20.3z"/>
</g>
<path class="st2" d="M212,41.3h-2v-2h2V41.3z M206,41.3h-2v-2h2V41.3z M200,41.3h-2v-2h2V41.3z M194,41.3h-2v-2h2V41.3z M188,41.3
	h-2v-2h2V41.3z M182,41.3h-2v-2h2V41.3z M176,41.3h-2v-2h2V41.3z M170,41.3h-2v-2h2V41.3z M164,41.3h-2v-2h2V41.3z M158,41.3h-2v-2
	h2V41.3z M152,41.3h-2v-2h2V41.3z M146,41.3h-2v-2h2V41.3z M140,41.3h-2v-2h2V41.3z M134,41.3h-2v-2h2V41.3z M128,41.3h-2v-2h2V41.3
	z M122,41.3h-2v-2h2V41.3z M116,41.3h-2v-2h2V41.3z M110,41.3h-2v-2h2V41.3z M104,41.3h-2v-2h2V41.3z M98,41.3h-2v-2h2V41.3z
	 M92,41.3h-2v-2h2V41.3z M86,41.3h-2v-2h2V41.3z M80,41.3h-2v-2h2V41.3z M74,41.3h-2v-2h2V41.3z M68,41.3h-2v-2h2V41.3z M62,41.3h-2
	v-2h2V41.3z M56,41.3h-2v-2h2V41.3z M50,41.3h-2v-2h2V41.3z M44,41.3h-2v-2h2V41.3z M38,41.3h-2v-2h2V41.3z M32,41.3h-2v-2h2V41.3z
	 M26,41.3h-2v-2h2V41.3z M20,41.3h-2v-2h2V41.3z M14,41.3h-2v-2h2V41.3z M8,41.3H6v-2h2V41.3z M2,41.3H0v-2h2V41.3z"/>
<path class="st2" d="M212,81.3h-2v-2h2V81.3z M206,81.3h-2v-2h2V81.3z M200,81.3h-2v-2h2V81.3z M194,81.3h-2v-2h2V81.3z M188,81.3
	h-2v-2h2V81.3z M182,81.3h-2v-2h2V81.3z M176,81.3h-2v-2h2V81.3z M170,81.3h-2v-2h2V81.3z M164,81.3h-2v-2h2V81.3z M158,81.3h-2v-2
	h2V81.3z M152,81.3h-2v-2h2V81.3z M146,81.3h-2v-2h2V81.3z M140,81.3h-2v-2h2V81.3z M134,81.3h-2v-2h2V81.3z M128,81.3h-2v-2h2V81.3
	z M122,81.3h-2v-2h2V81.3z M116,81.3h-2v-2h2V81.3z M110,81.3h-2v-2h2V81.3z M104,81.3h-2v-2h2V81.3z M98,81.3h-2v-2h2V81.3z
	 M92,81.3h-2v-2h2V81.3z M86,81.3h-2v-2h2V81.3z M80,81.3h-2v-2h2V81.3z M74,81.3h-2v-2h2V81.3z M68,81.3h-2v-2h2V81.3z M62,81.3h-2
	v-2h2V81.3z M56,81.3h-2v-2h2V81.3z M50,81.3h-2v-2h2V81.3z M44,81.3h-2v-2h2V81.3z M38,81.3h-2v-2h2V81.3z M32,81.3h-2v-2h2V81.3z
	 M26,81.3h-2v-2h2V81.3z M20,81.3h-2v-2h2V81.3z M14,81.3h-2v-2h2V81.3z M8,81.3H6v-2h2V81.3z M2,81.3H0v-2h2V81.3z"/>
<path class="st2" d="M212,2h-2V0h2V2z M206,2h-2V0h2V2z M200,2h-2V0h2V2z M194,2h-2V0h2V2z M188,2h-2V0h2V2z M182,2h-2V0h2V2z
	 M176,2h-2V0h2V2z M170,2h-2V0h2V2z M164,2h-2V0h2V2z M158,2h-2V0h2V2z M152,2h-2V0h2V2z M146,2h-2V0h2V2z M140,2h-2V0h2V2z M134,2
	h-2V0h2V2z M128,2h-2V0h2V2z M122,2h-2V0h2V2z M116,2h-2V0h2V2z M110,2h-2V0h2V2z M104,2h-2V0h2V2z M98,2h-2V0h2V2z M92,2h-2V0h2V2z
	 M86,2h-2V0h2V2z M80,2h-2V0h2V2z M74,2h-2V0h2V2z M68,2h-2V0h2V2z M62,2h-2V0h2V2z M56,2h-2V0h2V2z M50,2h-2V0h2V2z M44,2h-2V0h2V2
	z M38,2h-2V0h2V2z M32,2h-2V0h2V2z M26,2h-2V0h2V2z M20,2h-2V0h2V2z M14,2h-2V0h2V2z M8,2H6V0h2V2z M2,2H0V0h2V2z"/>
</svg>
