<?xml version="1.0" encoding="utf-8"?>
<!-- Generator: Adobe Illustrator 19.1.0, SVG Export Plug-In . SVG Version: 6.00 Build 0)  -->
<svg version="1.1" id="Layer_1" xmlns="http://www.w3.org/2000/svg" xmlns:xlink="http://www.w3.org/1999/xlink" x="0px" y="0px"
	 viewBox="0 0 278 62.8" style="enable-background:new 0 0 278 62.8;" xml:space="preserve">
<style type="text/css">
	.st0{opacity:0.2;}
	.st1{clip-path:url(#SVGID_2_);}
	.st2{clip-path:url(#SVGID_4_);fill:#FFFFFF;stroke:#FFFFFF;stroke-miterlimit:10;}
	.st3{clip-path:url(#SVGID_6_);fill:#FFFFFF;stroke:#FFFFFF;stroke-width:0.8;stroke-miterlimit:10;}
	.st4{clip-path:url(#SVGID_8_);fill:#FFFFFF;stroke:#FFFFFF;stroke-miterlimit:10;}
	.st5{clip-path:url(#SVGID_10_);fill:#FFFFFF;stroke:#FFFFFF;stroke-miterlimit:10;}
	.st6{clip-path:url(#SVGID_12_);fill:#FFFFFF;stroke:#FFFFFF;stroke-miterlimit:10;}
	.st7{clip-path:url(#SVGID_14_);fill:#FFFFFF;}
	.st8{opacity:0.7;}
	.st9{fill:none;stroke:#FFFFFF;stroke-width:2.3;stroke-linecap:round;stroke-linejoin:round;stroke-miterlimit:10;}
	.st10{fill:#FFFFFF;}
</style>
<g class="st0">
	<defs>
		<rect id="SVGID_1_" x="0" y="0" class="st0" width="278" height="62.8"/>
	</defs>
	<clipPath id="SVGID_2_">
		<use xlink:href="#SVGID_1_"  style="overflow:visible;"/>
	</clipPath>
	<g class="st1">
		<g>
			<defs>
				<path id="SVGID_3_" d="M75.7,65.9c-0.4-1.7-1.8-6.7-2.8-8.1c-1.6-2.7-5-2.3-5.1-2.3H65c-0.1,0-2.8-0.1-4.4,2.2
					c-0.9,1.3-2.2,6.2-2.6,8.2c-0.1,0.2,0.1,0.5,0.3,0.5c0.2,0.1,0.5-0.1,0.5-0.3c0.5-2.1,1.8-6.8,2.5-7.9c1.3-1.9,3.7-1.8,3.7-1.8
					l2.8,0c0,0,3-0.3,4.3,1.9c0,0,0,0,0,0c0.8,1,2.2,5.6,2.6,7.8c0,0.2,0.2,0.3,0.4,0.3c0,0,0.1,0,0.1,0
					C75.6,66.3,75.7,66.1,75.7,65.9z M66.4,43c2.9,0,5.3,2.4,5.3,5.3c0,2.9-2.4,5.3-5.3,5.3c-2.9,0-5.3-2.4-5.3-5.3
					C61.1,45.4,63.5,43,66.4,43z M66.4,54.5c3.4,0,6.2-2.8,6.2-6.2c0-3.4-2.8-6.2-6.2-6.2c-3.4,0-6.2,2.8-6.2,6.2
					C60.2,51.8,63,54.5,66.4,54.5z"/>
			</defs>
			<use xlink:href="#SVGID_3_"  style="overflow:visible;fill-rule:evenodd;clip-rule:evenodd;fill:#FFFFFF;"/>
			<clipPath id="SVGID_4_">
				<use xlink:href="#SVGID_3_"  style="overflow:visible;"/>
			</clipPath>
			<rect x="55" y="39.2" class="st2" width="23.6" height="30.1"/>
			
				<use xlink:href="#SVGID_3_"  style="overflow:visible;fill-rule:evenodd;clip-rule:evenodd;fill:none;stroke:#FFFFFF;stroke-miterlimit:10;"/>
		</g>
		<g>
			<defs>
				<path id="SVGID_5_" d="M150.4,68.9c-0.4-1.7-1.8-6.7-2.8-8.1c-1.6-2.7-5-2.3-5.1-2.3h-2.8c-0.1,0-2.8-0.1-4.4,2.2
					c-0.9,1.3-2.2,6.2-2.6,8.2c-0.1,0.2,0.1,0.5,0.3,0.5c0.2,0.1,0.5-0.1,0.5-0.3c0.5-2.1,1.8-6.8,2.5-7.9c1.3-1.9,3.7-1.8,3.7-1.8
					l2.8,0c0,0,3-0.3,4.3,1.9c0,0,0,0,0,0c0.8,1,2.2,5.6,2.6,7.8c0,0.2,0.2,0.3,0.4,0.3c0,0,0.1,0,0.1,0
					C150.3,69.3,150.4,69.1,150.4,68.9z M141.2,46c2.9,0,5.3,2.4,5.3,5.3c0,2.9-2.4,5.3-5.3,5.3c-2.9,0-5.3-2.4-5.3-5.3
					C135.8,48.4,138.2,46,141.2,46z M141.2,57.5c3.4,0,6.2-2.8,6.2-6.2c0-3.4-2.8-6.2-6.2-6.2c-3.4,0-6.2,2.8-6.2,6.2
					C135,54.8,137.7,57.5,141.2,57.5z"/>
			</defs>
			<use xlink:href="#SVGID_5_"  style="overflow:visible;fill-rule:evenodd;clip-rule:evenodd;fill:#FFFFFF;"/>
			<clipPath id="SVGID_6_">
				<use xlink:href="#SVGID_5_"  style="overflow:visible;"/>
			</clipPath>
			<rect x="129.7" y="42.2" class="st3" width="23.6" height="30.1"/>
			
				<use xlink:href="#SVGID_5_"  style="overflow:visible;fill-rule:evenodd;clip-rule:evenodd;fill:none;stroke:#FFFFFF;stroke-width:0.8;stroke-miterlimit:10;"/>
		</g>
		<g>
			<defs>
				<path id="SVGID_7_" d="M93.6,70.4c-0.4-1.7-1.8-6.7-2.8-8.1c-1.6-2.7-5-2.3-5.1-2.3H83c-0.1,0-2.8-0.1-4.4,2.2
					c-0.9,1.3-2.2,6.2-2.6,8.2c-0.1,0.2,0.1,0.5,0.3,0.5c0.2,0.1,0.5-0.1,0.5-0.3c0.5-2.1,1.8-6.8,2.5-7.9c1.3-1.9,3.7-1.8,3.7-1.8
					l2.8,0c0,0,3-0.3,4.3,1.9c0,0,0,0,0,0c0.8,1,2.2,5.6,2.6,7.8c0,0.2,0.2,0.3,0.4,0.3c0,0,0.1,0,0.1,0
					C93.5,70.9,93.7,70.6,93.6,70.4z M84.4,47.6c2.9,0,5.3,2.4,5.3,5.3c0,2.9-2.4,5.3-5.3,5.3c-2.9,0-5.3-2.4-5.3-5.3
					C79.1,49.9,81.5,47.6,84.4,47.6z M84.4,59.1c3.4,0,6.2-2.8,6.2-6.2c0-3.4-2.8-6.2-6.2-6.2c-3.4,0-6.2,2.8-6.2,6.2
					C78.2,56.3,81,59.1,84.4,59.1z"/>
			</defs>
			<use xlink:href="#SVGID_7_"  style="overflow:visible;fill-rule:evenodd;clip-rule:evenodd;fill:#FFFFFF;"/>
			<clipPath id="SVGID_8_">
				<use xlink:href="#SVGID_7_"  style="overflow:visible;"/>
			</clipPath>
			<rect x="72.9" y="43.7" class="st4" width="23.6" height="30.1"/>
			
				<use xlink:href="#SVGID_7_"  style="overflow:visible;fill-rule:evenodd;clip-rule:evenodd;fill:none;stroke:#FFFFFF;stroke-miterlimit:10;"/>
		</g>
		<g>
			<defs>
				<path id="SVGID_9_" d="M111.5,64.5c-0.3-1.4-1.5-5.6-2.3-6.7c-1.3-2.2-4.1-1.9-4.2-1.9h-2.3c-0.1,0-2.4-0.1-3.7,1.8
					c-0.7,1.1-1.8,5.1-2.2,6.8c0,0.2,0.1,0.4,0.3,0.4c0.2,0,0.4-0.1,0.4-0.3c0.4-1.8,1.5-5.6,2.1-6.5c1.1-1.6,3-1.5,3.1-1.5l2.3,0
					c0,0,2.5-0.2,3.6,1.6c0,0,0,0,0,0c0.7,0.8,1.8,4.6,2.2,6.4c0,0.2,0.2,0.3,0.4,0.3c0,0,0.1,0,0.1,0
					C111.4,64.9,111.5,64.7,111.5,64.5z M103.8,45.6c2.4,0,4.4,2,4.4,4.4c0,2.4-2,4.4-4.4,4.4c-2.4,0-4.4-2-4.4-4.4
					C99.4,47.6,101.4,45.6,103.8,45.6z M103.8,55.2c2.8,0,5.1-2.3,5.1-5.1c0-2.8-2.3-5.1-5.1-5.1c-2.8,0-5.1,2.3-5.1,5.1
					C98.7,52.8,101,55.2,103.8,55.2z"/>
			</defs>
			<use xlink:href="#SVGID_9_"  style="overflow:visible;fill-rule:evenodd;clip-rule:evenodd;fill:#FFFFFF;"/>
			<clipPath id="SVGID_10_">
				<use xlink:href="#SVGID_9_"  style="overflow:visible;"/>
			</clipPath>
			<rect x="94.3" y="42.4" class="st5" width="19.6" height="25"/>
			
				<use xlink:href="#SVGID_9_"  style="overflow:visible;fill-rule:evenodd;clip-rule:evenodd;fill:none;stroke:#FFFFFF;stroke-miterlimit:10;"/>
		</g>
		<g>
			<defs>
				<path id="SVGID_11_" d="M147.7,65C147.8,65,147.8,65,147.7,65c0.2,0,0.4-0.1,0.4-0.3c0.4-1.8,1.5-5.6,2.2-6.4c0,0,0,0,0,0
					c1.1-1.8,3.5-1.6,3.6-1.6l2.3,0c0,0,2,0,3.1,1.5c0.6,0.9,1.7,4.8,2.1,6.5c0,0.2,0.2,0.3,0.4,0.3c0.2,0,0.3-0.2,0.3-0.4
					c-0.4-1.7-1.5-5.7-2.2-6.8c-1.3-1.9-3.6-1.8-3.7-1.8H154c-0.1,0-2.9-0.3-4.2,1.9c-0.9,1.1-2,5.3-2.3,6.7
					C147.4,64.7,147.5,64.9,147.7,65z M159.5,50c0,2.4-2,4.4-4.4,4.4c-2.4,0-4.4-2-4.4-4.4c0-2.4,2-4.4,4.4-4.4
					C157.5,45.6,159.5,47.6,159.5,50z M160.3,50c0-2.8-2.3-5.1-5.1-5.1c-2.8,0-5.1,2.3-5.1,5.1c0,2.8,2.3,5.1,5.1,5.1
					C157.9,55.2,160.3,52.8,160.3,50z"/>
			</defs>
			<use xlink:href="#SVGID_11_"  style="overflow:visible;fill-rule:evenodd;clip-rule:evenodd;fill:#FFFFFF;"/>
			<clipPath id="SVGID_12_">
				<use xlink:href="#SVGID_11_"  style="overflow:visible;"/>
			</clipPath>
			<rect x="145" y="42.4" class="st6" width="19.6" height="25"/>
			
				<use xlink:href="#SVGID_11_"  style="overflow:visible;fill-rule:evenodd;clip-rule:evenodd;fill:none;stroke:#FFFFFF;stroke-miterlimit:10;"/>
		</g>
		<g>
			<defs>
				<path id="SVGID_13_" d="M48.4,46.9c0,3.3-2.7,6-6,6c-3.3,0-6-2.7-6-6s2.7-6,6-6C45.7,40.9,48.4,43.6,48.4,46.9z M34.6,46.9
					c0,4.3,3.5,7.8,7.8,7.8c4.3,0,7.8-3.5,7.8-7.8s-3.5-7.8-7.8-7.8C38.1,39.1,34.6,42.6,34.6,46.9z M19.4,26.8
					c5.2,0,9.4,4.2,9.4,9.4c0,5.2-4.2,9.4-9.4,9.4c-5.2,0-9.4-4.2-9.4-9.4C10,31,14.2,26.8,19.4,26.8z M19.4,47.3
					c6.1,0,11.1-5,11.1-11.1c0-6.1-5-11.1-11.1-11.1c-6.1,0-11.1,5-11.1,11.1C8.3,42.3,13.3,47.3,19.4,47.3z M50.3,58
					c-2.1-3.4-6.3-3-6.4-3h-3.3c-0.2,0-3.6-0.1-5.6,2.8c-0.3,0.4-0.6,1.2-1,2.2c0,0,0,0.1,0,0.1c-1-3.1-2.1-6.1-3.1-7.4
					c-2.9-4.8-9-4.2-9.1-4.2h-4.9c-0.2,0-5.1-0.1-8,4c-1.6,2.3-3.9,11-4.7,14.6c-0.1,0.5,0.2,1,0.7,1.1c0.5,0.1,1-0.2,1.1-0.7
					c0.9-3.8,3.1-12.1,4.5-14c2.3-3.3,6.4-3.2,6.5-3.2l5,0c0.1,0,5.2-0.5,7.6,3.4c0,0,0,0.1,0.1,0.1c1.4,1.8,3.8,9.9,4.7,13.8
					c0.1,0.4,0.5,0.7,0.9,0.7c0.1,0,0.1,0,0.2,0c0.5-0.1,0.8-0.6,0.7-1.1c-0.3-1.3-0.9-3.7-1.7-6.2c0.1,0.1,0.2,0.1,0.3,0.2
					c0.5,0.2,1-0.1,1.1-0.5c0.4-1.2,0.7-1.7,0.8-1.8c1.5-2.1,4-2.1,4.1-2.1l3.4,0c0.1,0,3.4-0.3,4.8,2.1c0,0,0,0.1,0.1,0.1
					c0.9,1.1,2.4,6.2,3.1,9.1c0.1,0.4,0.5,0.7,0.9,0.7c0.1,0,0.1,0,0.2,0c0.5-0.1,0.8-0.6,0.7-1.1C53.3,65.8,51.6,59.7,50.3,58z
					 M31.9,21.6c0.2-0.4,0.3-0.8,0.6-1.2c0.2-0.4,0.4-0.7,0.7-1c0,0,0.1-0.1,0.1-0.1c0.3-0.3,0.5-0.6,0.8-0.9c0,0,0.1-0.1,0.1-0.1
					c0.3-0.3,0.6-0.5,0.9-0.7c0,0,0.1-0.1,0.1-0.1c0.3-0.2,0.7-0.4,1-0.6c0,0,0.1,0,0.1,0c0.4-0.2,0.8-0.4,1.2-0.5
					c0.1,0,0.1-0.1,0.2-0.1c0.4-0.1,0.8-0.3,1.2-0.4c0.1,0,0.2,0,0.3-0.1c0.4-0.1,0.8-0.2,1.3-0.2c0.1,0,0.1,0,0.2,0
					c0.5,0,0.9-0.1,1.4-0.1h0c5.8,0,10.6,3.8,10.6,8.4c0,4.3-4.3,8-9.7,8.4c-0.1,0-0.3,0-0.4,0.1l-2,1.2c0.2-0.2,0.2-0.6,0.1-0.8
					c-0.1-0.3-0.4-0.5-0.7-0.6c-1-0.2-2-0.5-2.9-0.9c-3.4-1.5-5.5-4.3-5.5-7.4C31.5,23.1,31.6,22.3,31.9,21.6z M35.7,32.6
					c0,0,0.1,0.1,0.1,0.1c0.8,0.4,1.6,0.7,2.4,0.9l-2.1,2.6c-0.3,0.3-0.3,0.8,0,1.1c0.2,0.2,0.4,0.3,0.7,0.3c0.1,0,0.3,0,0.4-0.1
					l6.1-3.5c6.3-0.5,11.1-4.9,11.1-10.1c0-5.6-5.5-10.2-12.4-10.2c0,0,0,0,0,0h0h0h0c-0.5,0-1,0-1.5,0.1c-0.1,0-0.3,0-0.4,0
					c-0.4,0.1-0.8,0.1-1.2,0.2c-0.3,0.1-0.5,0.1-0.8,0.2c-0.1,0-0.1,0-0.2,0.1c-1.8,0.5-3.4,1.4-4.7,2.5c0,0,0,0,0,0
					c-0.2,0.2-0.4,0.3-0.6,0.5c-0.3,0.2-0.5,0.5-0.7,0.8c-0.1,0.1-0.2,0.2-0.2,0.3c-0.3,0.3-0.5,0.7-0.7,1.1c0,0,0,0,0,0
					c0,0,0,0,0,0c-0.3,0.5-0.5,1-0.7,1.5c-0.3,0.9-0.5,1.9-0.5,2.9C29.7,27.5,32,30.8,35.7,32.6z"/>
			</defs>
			<use xlink:href="#SVGID_13_"  style="overflow:visible;fill-rule:evenodd;clip-rule:evenodd;fill:#FFFFFF;"/>
			<clipPath id="SVGID_14_">
				<use xlink:href="#SVGID_13_"  style="overflow:visible;"/>
			</clipPath>
			<rect x="-1.8" y="7.8" class="st7" width="62.2" height="67.1"/>
		</g>
		<g class="st8">
			<g>
				<path class="st9" d="M265.8,7.7c0,0-25.3,15.2-25.3,47.5c0,33.2,24.8,47.2,24.8,47.2"/>
				<path class="st9" d="M268.8,7.7c0,0,25.3,15.2,25.3,47.5c0,33.2-24.8,47.2-24.8,47.2"/>
				<path class="st9" d="M303.2,85.6c-7.8-6.4-19.8-12.9-36.2-12.9c-16.5,0-28.3,6.2-36,12.3"/>
				<g>
					<g>
						<path class="st10" d="M267.1,8c12.9,0,25,5.2,34,14.5c8.5,8.8,13.2,20.4,13.2,32.7c0,26-21.2,47.2-47.2,47.2
							c-26,0-47.2-21.2-47.2-47.2c0-12.4,4.8-24.1,13.5-33C242.3,13,254.3,8,267.1,8 M267.1,5.7c-13.9,0-26.4,5.7-35.4,14.9
							c-8.7,8.9-14.1,21.1-14.1,34.6c0,27.3,22.2,49.5,49.5,49.5c27.3,0,49.5-22.2,49.5-49.5c0-13.3-5.3-25.4-13.8-34.3
							C293.8,11.5,281.1,5.7,267.1,5.7L267.1,5.7z"/>
					</g>
				</g>
				<path class="st9" d="M233.3,21.8c7.8,5.8,19.1,11.1,33.9,11.1c15.2,0,26.4-5.2,34.1-10.9"/>
			</g>
			<line class="st9" x1="220.2" y1="55.2" x2="313.4" y2="55.2"/>
			<line class="st9" x1="266.8" y1="8.6" x2="266.8" y2="101.7"/>
		</g>
	</g>
</g>
</svg>
