<?xml version="1.0" encoding="utf-8"?>
<!-- Generator: Adobe Illustrator 19.1.0, SVG Export Plug-In . SVG Version: 6.00 Build 0)  -->
<svg version="1.1" id="Layer_1" xmlns="http://www.w3.org/2000/svg" xmlns:xlink="http://www.w3.org/1999/xlink" x="0px" y="0px"
	 viewBox="0 0 32.5 32.5" style="enable-background:new 0 0 32.5 32.5;" xml:space="preserve">
<style type="text/css">
	.st0{fill:none;stroke:#EC1664;stroke-width:1.3;stroke-linecap:round;stroke-linejoin:round;stroke-miterlimit:10;}
	.st1{fill:#EC1664;}
</style>
<g>
	<g>
		<path class="st0" d="M15.8,0.7c0,0-8.3,5-8.3,15.6c0,10.9,8.2,15.5,8.2,15.5"/>
		<path class="st0" d="M16.8,0.7c0,0,8.3,5,8.3,15.6c0,10.9-8.2,15.5-8.2,15.5"/>
		<path class="st0" d="M28.1,26.2c-2.6-2.1-6.5-4.2-11.9-4.2c-5.4,0-9.3,2-11.8,4"/>
		<g>
			<g>
				<path class="st1" d="M16.3,1.3c4.1,0,7.9,1.6,10.8,4.6c2.7,2.8,4.2,6.5,4.2,10.3c0,8.2-6.7,15-15,15c-8.2,0-15-6.7-15-15
					c0-3.9,1.5-7.6,4.3-10.5C8.4,2.9,12.2,1.3,16.3,1.3 M16.3,0C11.7,0,7.6,1.9,4.6,4.9C1.8,7.8,0,11.8,0,16.3
					c0,9,7.3,16.3,16.3,16.3c9,0,16.3-7.3,16.3-16.3c0-4.4-1.7-8.3-4.5-11.2C25,1.9,20.9,0,16.3,0L16.3,0z"/>
			</g>
		</g>
		<path class="st0" d="M5.2,5.3C7.7,7.2,11.4,9,16.3,9c5,0,8.7-1.7,11.2-3.6"/>
	</g>
	<line class="st0" x1="0.9" y1="16.3" x2="31.5" y2="16.3"/>
	<line class="st0" x1="16.2" y1="1" x2="16.2" y2="31.5"/>
</g>
</svg>
