<?xml version="1.0" encoding="utf-8"?>
<!-- Generator: Adobe Illustrator 19.1.0, SVG Export Plug-In . SVG Version: 6.00 Build 0)  -->
<svg version="1.1" id="Layer_1" xmlns="http://www.w3.org/2000/svg" xmlns:xlink="http://www.w3.org/1999/xlink" x="0px" y="0px"
	 viewBox="0 0 25.7 24.5" style="enable-background:new 0 0 25.7 24.5;" xml:space="preserve">
<style type="text/css">
	.st0{fill:none;stroke:#FFFFFF;stroke-width:1.3;stroke-linecap:round;stroke-linejoin:round;stroke-miterlimit:10;}
</style>
<path class="st0" d="M13.2,0.9l2.3,7c0.3,0.9,1.1,1.4,2,1.4h7.3c0.3,0,0.4,0.4,0.2,0.6L19,14.2c-0.7,0.5-1,1.5-0.8,2.3l2.3,7
	c0.1,0.3-0.2,0.5-0.5,0.4l-5.9-4.3c-0.7-0.5-1.7-0.5-2.5,0l-5.9,4.3c-0.3,0.2-0.6-0.1-0.5-0.4l2.3-7c0.3-0.9,0-1.8-0.8-2.3L0.8,9.9
	C0.5,9.7,0.7,9.3,1,9.3h7.3c0.9,0,1.7-0.6,2-1.4l2.3-7C12.6,0.6,13.1,0.6,13.2,0.9z"/>
</svg>
