<?xml version="1.0" encoding="utf-8"?>
<!-- Generator: Adobe Illustrator 20.1.0, SVG Export Plug-In . SVG Version: 6.00 Build 0)  -->
<svg version="1.1" id="Layer_1" xmlns="http://www.w3.org/2000/svg" xmlns:xlink="http://www.w3.org/1999/xlink" x="0px" y="0px"
	 viewBox="0 0 70.1 42.5" style="enable-background:new 0 0 70.1 42.5;" xml:space="preserve">
<style type="text/css">
	.st0{fill:none;}
	.st1{fill:#FFFFFF;}
</style>
<g>
	<path class="st0" d="M56.5,20.7c3.3,0,6-2.7,6-6s-2.7-6-6.1-6c-3.3,0-5.9,2.7-5.9,6S53.3,20.7,56.5,20.7z"/>
	<path class="st0" d="M35.2,18.9c4.5,0,8.3-3.8,8.3-8.3c0-4.5-3.8-8.3-8.5-8.3c-4.5,0-8.1,3.8-8.1,8.3
		C26.9,15.1,30.7,18.9,35.2,18.9z"/>
	<path class="st0" d="M13.8,20.7c3.3,0,6-2.7,6-6s-2.7-6-6.1-6c-3.3,0-5.9,2.7-5.9,6S10.6,20.7,13.8,20.7z"/>
	<path class="st1" d="M35,21.3c5.9,0,10.6-4.7,10.6-10.6S40.8,0,35,0c-5.8,0-10.6,4.7-10.6,10.6S29.1,21.3,35,21.3z M35,2.3
		c4.7,0,8.5,3.8,8.5,8.3c0,4.5-3.8,8.3-8.3,8.3c-4.5,0-8.3-3.8-8.3-8.3C26.9,6.1,30.5,2.3,35,2.3z"/>
	<path class="st1" d="M46.8,29.6c2.9,3,4.8,7.1,4.8,11.6c0,0.7,0.5,1.3,1.3,1.3s1.3-0.5,1.1-1.3c0-5.2-2.1-9.9-5.5-13.4
		C47.8,28.4,47.3,29,46.8,29.6z"/>
	<path class="st1" d="M21.7,27.9c-3.4,3.4-5.5,8.1-5.5,13.4c0,0.7,0.4,1.3,1.1,1.3c0.7,0,1.3-0.5,1.3-1.3c0-4.6,1.8-8.7,4.8-11.6
		C22.8,29,22.2,28.4,21.7,27.9z"/>
	<path class="st1" d="M47.2,26.8c-3.3-2.8-7.5-4.4-12.1-4.4c-4.6,0-8.9,1.7-12.1,4.4c0.6,0.5,1.1,1.1,1.6,1.7
		c2.9-2.4,6.5-3.8,10.6-3.8c4,0,7.7,1.4,10.6,3.8C46.1,27.8,46.6,27.3,47.2,26.8z"/>
	<path class="st1" d="M56.4,22.4c4.3,0,7.7-3.4,7.7-7.7c0-4.3-3.5-7.7-7.7-7.7s-7.7,3.4-7.7,7.7C48.7,19,52.1,22.4,56.4,22.4z
		 M56.4,8.7c3.4,0,6.1,2.7,6.1,6s-2.7,6-6,6s-6-2.7-6-6S53.1,8.7,56.4,8.7z"/>
	<path class="st1" d="M70.1,36.9c0-7.6-6.1-13.7-13.7-13.7c-3.6,0-6.8,1.4-9.2,3.6c0.4,0.4,0.9,0.7,1.2,1.1c2.1-1.9,4.9-3,8-3
		c6.7,0,12,5.3,12,12c0,0.5,0.4,0.9,0.9,0.9C69.8,37.8,70.2,37.4,70.1,36.9z"/>
	<path class="st1" d="M47.2,26.8c-0.6,0.5-1.1,1.1-1.6,1.7c0.4,0.4,0.8,0.7,1.2,1.1c0.5-0.6,1-1.2,1.6-1.7
		C48,27.5,47.6,27.1,47.2,26.8z"/>
	<path class="st1" d="M13.7,22.4c4.3,0,7.7-3.4,7.7-7.7c0-4.3-3.5-7.7-7.7-7.7S6,10.4,6,14.7C6,19,9.4,22.4,13.7,22.4z M13.7,8.7
		c3.4,0,6.1,2.7,6.1,6s-2.7,6-6,6c-3.3,0-6-2.7-6-6S10.4,8.7,13.7,8.7z"/>
	<path class="st1" d="M22.9,26.7c-2.4-2.2-5.7-3.6-9.2-3.6C6.1,23.2,0,29.3,0,36.9c0,0.5,0.3,0.9,0.8,0.9c0.5,0,0.9-0.4,0.9-0.9
		c0-6.6,5.3-12,12-12c3.1,0,5.8,1.1,8,3C22,27.5,22.5,27.1,22.9,26.7z"/>
	<path class="st1" d="M22.9,26.7c-0.4,0.4-0.9,0.7-1.2,1.1c0.6,0.5,1.1,1.1,1.6,1.7c0.4-0.4,0.8-0.8,1.2-1.1
		C24,27.8,23.5,27.3,22.9,26.7z"/>
</g>
</svg>
