<?xml version="1.0" encoding="utf-8"?>
<!-- Generator: Adobe Illustrator 19.1.0, SVG Export Plug-In . SVG Version: 6.00 Build 0)  -->
<svg version="1.1" id="Layer_1" xmlns="http://www.w3.org/2000/svg" xmlns:xlink="http://www.w3.org/1999/xlink" x="0px" y="0px"
	 viewBox="-1663 936 33 30" style="enable-background:new -1663 936 33 30;" xml:space="preserve">
<style type="text/css">
	.st0{fill:#FFFFFF;}
</style>
<g>
	<path class="st0" d="M-1639.3,962.7h-14.5c-1.1,0-2.1-0.9-2.1-2.1v-13.9c0-0.4,0.3-0.6,0.6-0.6s0.6,0.3,0.6,0.6v13.9
		c0,0.4,0.3,0.8,0.8,0.8h14.5c0.4,0,0.8-0.3,0.8-0.8v-13.9c0-0.4,0.3-0.6,0.7-0.6s0.7,0.3,0.7,0.6v13.9
		C-1637.2,961.8-1638.1,962.7-1639.3,962.7z"/>
	<path class="st0" d="M-1658.5,950.2c-0.2,0-0.4-0.1-0.5-0.2c-0.2-0.3-0.2-0.7,0.1-0.9l10.3-9.1c1.2-1,3-1,4.2,0l10.4,9.1
		c0.3,0.2,0.3,0.6,0.1,0.9c-0.2,0.3-0.6,0.3-0.9,0.1l-10.4-9.1c-0.7-0.6-1.8-0.6-2.5,0l-10.3,9.1
		C-1658.2,950.2-1658.3,950.2-1658.5,950.2z"/>
</g>
</svg>
