<?xml version="1.0" encoding="utf-8"?>
<!-- Generator: Adobe Illustrator 19.1.0, SVG Export Plug-In . SVG Version: 6.00 Build 0)  -->
<svg version="1.1" id="Layer_1" xmlns="http://www.w3.org/2000/svg" xmlns:xlink="http://www.w3.org/1999/xlink" x="0px" y="0px"
	 viewBox="-3322.1 1875.2 25.4 23.5" style="enable-background:new -3322.1 1875.2 25.4 23.5;" xml:space="preserve">
<style type="text/css">
	.st0{fill:#FFFFFF;}
</style>
<g>
	<path class="st0" d="M-3302.3,1898.7h-14.5c-1.1,0-2.1-0.9-2.1-2.1v-13.9c0-0.4,0.3-0.6,0.6-0.6c0.3,0,0.6,0.3,0.6,0.6v13.9
		c0,0.4,0.3,0.8,0.8,0.8h14.5c0.4,0,0.8-0.3,0.8-0.8v-13.9c0-0.4,0.3-0.6,0.7-0.6s0.7,0.3,0.7,0.6v13.9
		C-3300.2,1897.8-3301.1,1898.7-3302.3,1898.7z"/>
	<path class="st0" d="M-3321.5,1886.2c-0.2,0-0.4-0.1-0.5-0.2c-0.2-0.3-0.2-0.7,0.1-0.9l10.3-9.1c1.2-1,3-1,4.2,0l10.4,9.1
		c0.3,0.2,0.3,0.6,0.1,0.9c-0.2,0.3-0.6,0.3-0.9,0.1l-10.4-9.1c-0.7-0.6-1.8-0.6-2.5,0l-10.3,9.1
		C-3321.2,1886.2-3321.3,1886.2-3321.5,1886.2z"/>
</g>
</svg>
