<?xml version="1.0" encoding="utf-8"?>
<!-- Generator: Adobe Illustrator 20.1.0, SVG Export Plug-In . SVG Version: 6.00 Build 0)  -->
<svg version="1.1" id="Layer_1" xmlns="http://www.w3.org/2000/svg" xmlns:xlink="http://www.w3.org/1999/xlink" x="0px" y="0px"
	 viewBox="0 0 45.4 38.9" style="enable-background:new 0 0 45.4 38.9;" xml:space="preserve">
<style type="text/css">
	.st0{fill:#4D4D4D;}
</style>
<g>
	<path class="st0" d="M42.4,8.1c2,2.5,3,5.2,3,8.1c0,2.9-1,5.7-3,8.1s-4.8,4.5-8.3,5.9c-3.5,1.4-7.3,2.2-11.4,2.2
		c-1.2,0-2.4-0.1-3.7-0.2c-3.3,3-7.2,5-11.7,6.1c-0.8,0.2-1.8,0.4-2.9,0.6H4.4c-0.3,0-0.5-0.1-0.7-0.3c-0.2-0.2-0.3-0.4-0.4-0.7v0
		c-0.1-0.1-0.1-0.2,0-0.3c0-0.1,0.1-0.2,0.1-0.3c0,0,0-0.1,0.1-0.2c0.1-0.1,0.1-0.2,0.2-0.2s0.1-0.1,0.2-0.2
		c0.1-0.1,0.2-0.2,0.2-0.2c0.1-0.1,0.4-0.4,0.8-0.9s0.7-0.8,0.9-1c0.2-0.2,0.4-0.5,0.8-1c0.3-0.5,0.6-0.9,0.8-1.3
		c0.2-0.4,0.4-0.9,0.7-1.5c0.3-0.6,0.5-1.2,0.7-1.9c-2.7-1.5-4.7-3.4-6.3-5.6C0.8,21.1,0,18.7,0,16.2c0-2.9,1-5.7,3-8.1
		c2-2.5,4.8-4.5,8.3-5.9C14.8,0.7,18.6,0,22.7,0c4.1,0,7.9,0.7,11.4,2.2C37.6,3.6,40.3,5.6,42.4,8.1z M32.4,5
		c-3-1.2-6.2-1.8-9.7-1.8C19.3,3.2,16,3.8,13,5S7.7,7.8,5.9,9.8c-1.8,2-2.6,4.1-2.6,6.5c0,1.9,0.6,3.7,1.8,5.4
		c1.2,1.7,2.9,3.2,5.1,4.4l2.2,1.3l-0.7,2.4c-0.4,1.5-1,3-1.8,4.4c2.6-1.1,4.9-2.5,7-4.3l1.1-1l1.4,0.2c1.2,0.1,2.3,0.2,3.3,0.2
		c3.4,0,6.7-0.6,9.7-1.8c3-1.2,5.4-2.8,7.1-4.7s2.6-4.1,2.6-6.5c0-2.3-0.9-4.5-2.6-6.5C37.7,7.8,35.4,6.2,32.4,5z"/>
</g>
</svg>
