<?xml version="1.0" encoding="utf-8"?>
<!-- Generator: Adobe Illustrator 20.1.0, SVG Export Plug-In . SVG Version: 6.00 Build 0)  -->
<svg version="1.1" id="Layer_1" xmlns="http://www.w3.org/2000/svg" xmlns:xlink="http://www.w3.org/1999/xlink" x="0px" y="0px"
	 viewBox="0 0 37.9 42.5" style="enable-background:new 0 0 37.9 42.5;" xml:space="preserve">
<style type="text/css">
	.st0{fill:#4D4D4D;}
</style>
<g>
	<g>
		<path class="st0" d="M18.9,21.3c-5.9,0-10.6-4.7-10.6-10.6S13.1,0,18.9,0s10.6,4.7,10.6,10.6S24.9,21.3,18.9,21.3z M18.9,2.3
			c-4.5,0-8.1,3.8-8.1,8.3s3.8,8.3,8.3,8.3s8.3-3.8,8.3-8.3S23.6,2.3,18.9,2.3z"/>
		<path class="st0" d="M36.7,42.5c-0.7,0-1.3-0.5-1.3-1.3c0-9.2-7.4-16.6-16.6-16.6S2.3,32.1,2.3,41.2c0,0.7-0.5,1.3-1.3,1.3
			S0,42,0,41.2c0-10.4,8.5-18.9,18.9-18.9s18.9,8.5,18.9,18.9C38,42,37.5,42.5,36.7,42.5z"/>
	</g>
</g>
</svg>
