<?xml version="1.0" encoding="utf-8"?>
<!-- Generator: Adobe Illustrator 19.1.0, SVG Export Plug-In . SVG Version: 6.00 Build 0)  -->
<svg version="1.1" id="Layer_1" xmlns="http://www.w3.org/2000/svg" xmlns:xlink="http://www.w3.org/1999/xlink" x="0px" y="0px"
	 viewBox="0 0 18.9 4.8" style="enable-background:new 0 0 18.9 4.8;" xml:space="preserve">
<style type="text/css">
	.st0{fill:#68C4A8;}
</style>
<g>
	<path class="st0" d="M2.4,0c1.3,0,2.4,1.1,2.4,2.4c0,1.3-1.1,2.4-2.4,2.4C1.1,4.8,0,3.7,0,2.4C0,1.1,1.1,0,2.4,0z"/>
	<path class="st0" d="M9.5,0c1.3,0,2.4,1.1,2.4,2.4c0,1.3-1.1,2.4-2.4,2.4c-1.3,0-2.4-1.1-2.4-2.4C7.1,1.1,8.1,0,9.5,0z"/>
	<path class="st0" d="M16.5,0c1.3,0,2.4,1.1,2.4,2.4c0,1.3-1.1,2.4-2.4,2.4c-1.3,0-2.4-1.1-2.4-2.4C14.1,1.1,15.2,0,16.5,0z"/>
</g>
</svg>
